<svg xmlns="http://www.w3.org/2000/svg" xmlns:xlink="http://www.w3.org/1999/xlink" width="793" zoomAndPan="magnify" viewBox="0 0 595.5 842.249979" height="1122" preserveAspectRatio="xMidYMid meet" version="1.0"><defs><clipPath id="ccfc840eff"><path d="M 0.015625 0 L 594.984375 0 L 594.984375 841.5 L 0.015625 841.5 Z M 0.015625 0 " clip-rule="nonzero"/></clipPath><clipPath id="50e94c683f"><path d="M 1 369 L 240 369 L 240 698.65625 L 1 698.65625 Z M 1 369 " clip-rule="nonzero"/></clipPath><clipPath id="d1ac34f2a8"><path d="M 468 265 L 594.984375 265 L 594.984375 698.65625 L 468 698.65625 Z M 468 265 " clip-rule="nonzero"/></clipPath></defs><g clip-path="url(#ccfc840eff)"><path fill="#ffffff" d="M 0.015625 0 L 594.984375 0 L 594.984375 841.5 L 0.015625 841.5 Z M 0.015625 0 " fill-opacity="1" fill-rule="nonzero"/><path fill="#ffffff" d="M 0.015625 0 L 594.984375 0 L 594.984375 841.5 L 0.015625 841.5 Z M 0.015625 0 " fill-opacity="1" fill-rule="nonzero"/></g><path fill="#000000" d="M 149.914062 156.046875 C 149.914062 173.96875 196.167969 182.929688 244.414062 187.410156 L 244.414062 237.191406 C 244.414062 277.511719 277.242188 310.367188 317.527344 310.367188 L 320.511719 310.367188 C 360.800781 310.367188 393.625 277.511719 393.625 237.191406 L 393.625 187.410156 C 441.871094 182.929688 488.125 173.472656 488.125 156.046875 C 488.125 137.628906 438.886719 128.171875 388.652344 124.1875 L 388.652344 84.363281 C 388.652344 83.371094 388.652344 82.375 388.652344 81.378906 C 387.65625 74.90625 384.175781 69.929688 378.703125 65.945312 C 372.238281 61.964844 363.785156 60.96875 356.324219 63.457031 C 347.371094 66.445312 331.453125 71.421875 320.015625 71.421875 C 312.054688 71.917969 298.128906 68.433594 281.714844 62.960938 C 271.273438 59.472656 259.335938 62.960938 253.367188 71.421875 C 250.878906 74.90625 249.386719 79.386719 249.386719 83.867188 L 249.386719 123.691406 C 199.152344 128.171875 149.914062 137.628906 149.914062 156.046875 Z M 383.679688 237.191406 C 383.679688 272.035156 355.328125 300.410156 320.511719 300.410156 L 317.527344 300.410156 C 282.710938 300.410156 254.359375 272.035156 254.359375 237.191406 L 254.359375 166.003906 C 254.359375 163.019531 256.351562 161.027344 259.335938 161.027344 L 378.703125 161.027344 C 381.6875 161.027344 383.679688 163.019531 383.679688 166.003906 Z M 259.335938 83.867188 C 259.335938 81.378906 260.328125 78.890625 261.324219 76.898438 C 264.804688 72.417969 271.769531 70.425781 278.234375 72.417969 C 288.679688 75.902344 308.078125 81.378906 320.511719 81.378906 C 333.445312 81.378906 350.355469 75.902344 359.308594 72.914062 C 363.785156 71.421875 368.757812 71.917969 373.234375 74.410156 C 376.21875 76.398438 378.207031 79.386719 378.703125 82.375 C 378.703125 82.871094 378.703125 83.371094 378.703125 83.867188 L 378.703125 123.195312 C 357.316406 121.699219 335.929688 121.203125 319.019531 121.203125 C 302.109375 121.203125 280.722656 121.699219 259.335938 123.195312 Z M 319.019531 131.160156 C 421.976562 131.160156 478.179688 147.585938 478.179688 156.046875 C 478.179688 162.023438 448.835938 172.476562 393.625 177.453125 L 393.625 166.003906 C 393.625 157.542969 387.160156 151.070312 378.703125 151.070312 L 259.335938 151.070312 C 250.878906 151.070312 244.414062 157.542969 244.414062 166.003906 L 244.414062 177.453125 C 189.207031 171.976562 159.859375 162.023438 159.859375 156.046875 C 159.859375 147.585938 216.0625 131.160156 319.019531 131.160156 Z M 319.019531 131.160156 " fill-opacity="1" fill-rule="nonzero"/><path fill="#000000" d="M 368.757812 454.730469 C 368.757812 455.058594 368.726562 455.382812 368.660156 455.703125 C 368.597656 456.023438 368.503906 456.335938 368.378906 456.636719 C 368.253906 456.9375 368.101562 457.226562 367.917969 457.496094 C 367.738281 457.769531 367.53125 458.019531 367.300781 458.25 C 367.070312 458.480469 366.816406 458.6875 366.546875 458.871094 C 366.273438 459.050781 365.988281 459.207031 365.6875 459.332031 C 365.386719 459.457031 365.074219 459.550781 364.753906 459.613281 C 364.433594 459.675781 364.109375 459.710938 363.785156 459.710938 C 363.457031 459.710938 363.132812 459.675781 362.8125 459.613281 C 362.492188 459.550781 362.183594 459.457031 361.878906 459.332031 C 361.578125 459.207031 361.292969 459.050781 361.019531 458.871094 C 360.75 458.6875 360.496094 458.480469 360.265625 458.25 C 360.035156 458.019531 359.828125 457.769531 359.648438 457.496094 C 359.464844 457.226562 359.3125 456.9375 359.1875 456.636719 C 359.0625 456.335938 358.96875 456.023438 358.90625 455.703125 C 358.839844 455.382812 358.808594 455.058594 358.808594 454.730469 C 358.808594 454.40625 358.839844 454.082031 358.90625 453.761719 C 358.96875 453.441406 359.0625 453.128906 359.1875 452.828125 C 359.3125 452.523438 359.464844 452.238281 359.648438 451.964844 C 359.828125 451.695312 360.035156 451.441406 360.265625 451.210938 C 360.496094 450.980469 360.75 450.773438 361.019531 450.59375 C 361.292969 450.410156 361.578125 450.257812 361.878906 450.132812 C 362.183594 450.007812 362.492188 449.914062 362.8125 449.847656 C 363.132812 449.785156 363.457031 449.753906 363.785156 449.753906 C 364.109375 449.753906 364.433594 449.785156 364.753906 449.847656 C 365.074219 449.914062 365.386719 450.007812 365.6875 450.132812 C 365.988281 450.257812 366.273438 450.410156 366.546875 450.59375 C 366.816406 450.773438 367.070312 450.980469 367.300781 451.210938 C 367.53125 451.441406 367.738281 451.695312 367.917969 451.964844 C 368.101562 452.238281 368.253906 452.523438 368.378906 452.828125 C 368.503906 453.128906 368.597656 453.441406 368.660156 453.761719 C 368.726562 454.082031 368.757812 454.40625 368.757812 454.730469 Z M 368.757812 454.730469 " fill-opacity="1" fill-rule="nonzero"/><path fill="#000000" d="M 279.230469 454.730469 C 279.230469 455.058594 279.199219 455.382812 279.132812 455.703125 C 279.070312 456.023438 278.976562 456.335938 278.851562 456.636719 C 278.726562 456.9375 278.574219 457.226562 278.390625 457.496094 C 278.210938 457.769531 278.003906 458.019531 277.773438 458.25 C 277.542969 458.480469 277.289062 458.6875 277.019531 458.871094 C 276.746094 459.050781 276.460938 459.207031 276.160156 459.332031 C 275.859375 459.457031 275.546875 459.550781 275.226562 459.613281 C 274.90625 459.675781 274.582031 459.710938 274.257812 459.710938 C 273.929688 459.710938 273.605469 459.675781 273.285156 459.613281 C 272.964844 459.550781 272.65625 459.457031 272.351562 459.332031 C 272.050781 459.207031 271.765625 459.050781 271.492188 458.871094 C 271.222656 458.6875 270.96875 458.480469 270.738281 458.25 C 270.507812 458.019531 270.300781 457.769531 270.121094 457.496094 C 269.9375 457.226562 269.785156 456.9375 269.660156 456.636719 C 269.535156 456.335938 269.441406 456.023438 269.378906 455.703125 C 269.3125 455.382812 269.28125 455.058594 269.28125 454.730469 C 269.28125 454.40625 269.3125 454.082031 269.378906 453.761719 C 269.441406 453.441406 269.535156 453.128906 269.660156 452.828125 C 269.785156 452.523438 269.9375 452.238281 270.121094 451.964844 C 270.300781 451.695312 270.507812 451.441406 270.738281 451.210938 C 270.96875 450.980469 271.222656 450.773438 271.492188 450.59375 C 271.765625 450.410156 272.050781 450.257812 272.351562 450.132812 C 272.65625 450.007812 272.964844 449.914062 273.285156 449.847656 C 273.605469 449.785156 273.929688 449.753906 274.257812 449.753906 C 274.582031 449.753906 274.90625 449.785156 275.226562 449.847656 C 275.546875 449.914062 275.859375 450.007812 276.160156 450.132812 C 276.460938 450.257812 276.746094 450.410156 277.019531 450.59375 C 277.289062 450.773438 277.542969 450.980469 277.773438 451.210938 C 278.003906 451.441406 278.210938 451.695312 278.390625 451.964844 C 278.574219 452.238281 278.726562 452.523438 278.851562 452.828125 C 278.976562 453.128906 279.070312 453.441406 279.132812 453.761719 C 279.199219 454.082031 279.230469 454.40625 279.230469 454.730469 Z M 279.230469 454.730469 " fill-opacity="1" fill-rule="nonzero"/><path fill="#000000" d="M 284.203125 504.511719 C 275.75 504.511719 269.28125 510.984375 269.28125 519.445312 L 269.28125 549.3125 C 269.28125 563.253906 280.226562 574.203125 294.152344 574.203125 L 343.886719 574.203125 C 357.816406 574.203125 368.757812 563.253906 368.757812 549.3125 L 368.757812 519.445312 C 368.757812 510.984375 362.292969 504.511719 353.835938 504.511719 Z M 358.808594 519.445312 L 358.808594 549.3125 C 358.808594 557.777344 352.34375 564.25 343.886719 564.25 L 294.152344 564.25 C 285.695312 564.25 279.230469 557.777344 279.230469 549.3125 L 279.230469 519.445312 C 279.230469 516.460938 281.21875 514.46875 284.203125 514.46875 L 353.835938 514.46875 C 356.820312 514.46875 358.808594 516.460938 358.808594 519.445312 Z M 358.808594 519.445312 " fill-opacity="1" fill-rule="nonzero"/><path fill="#000000" d="M 229.492188 609.050781 L 448.335938 609.050781 C 462.261719 609.050781 473.207031 598.097656 473.207031 584.160156 L 473.207031 458.714844 C 473.207031 394 424.460938 338.742188 359.308594 330.777344 C 359.308594 330.777344 358.808594 330.777344 358.808594 330.777344 C 358.3125 330.777344 358.3125 330.777344 357.816406 330.777344 C 357.316406 330.777344 357.316406 330.777344 356.820312 331.277344 C 356.820312 331.277344 356.324219 331.277344 356.324219 331.773438 C 355.824219 331.773438 355.824219 332.269531 355.328125 332.269531 C 355.328125 332.269531 354.832031 332.769531 354.832031 332.769531 C 354.832031 333.265625 354.332031 333.265625 354.332031 333.765625 C 354.332031 333.765625 354.332031 333.765625 354.332031 334.261719 C 349.359375 347.703125 334.4375 357.660156 319.019531 357.660156 C 304.097656 357.660156 288.679688 347.703125 283.707031 333.765625 C 283.707031 333.765625 283.707031 333.765625 283.707031 333.265625 C 283.707031 332.769531 283.207031 332.769531 283.207031 332.269531 C 283.207031 331.773438 282.710938 331.773438 282.710938 331.773438 C 282.710938 331.773438 282.214844 331.277344 281.71875 331.277344 C 281.21875 331.277344 281.21875 330.777344 280.722656 330.777344 C 280.226562 330.777344 280.226562 330.777344 279.726562 330.777344 C 279.230469 330.777344 279.230469 330.777344 278.734375 330.777344 C 278.734375 330.777344 278.234375 330.777344 278.234375 330.777344 C 261.820312 332.769531 245.90625 337.746094 231.980469 345.214844 C 231.480469 345.214844 231.480469 345.710938 230.984375 345.710938 C 218.054688 352.679688 206.613281 362.140625 196.664062 373.089844 C 198.65625 375.582031 201.140625 378.070312 202.632812 381.554688 C 210.59375 372.097656 220.042969 364.132812 230.488281 357.660156 L 248.890625 431.335938 C 243.917969 433.324219 239.9375 436.3125 236.953125 440.792969 C 237.449219 444.773438 236.953125 449.253906 236.457031 453.734375 C 237.449219 455.230469 238.445312 456.226562 238.941406 458.214844 C 239.441406 459.710938 242.921875 471.65625 240.433594 484.597656 C 240.433594 484.597656 240.933594 485.097656 240.933594 485.097656 L 242.921875 453.734375 C 243.417969 445.769531 249.886719 439.796875 257.84375 439.796875 L 378.207031 439.796875 C 386.164062 439.796875 392.632812 445.769531 393.128906 453.734375 L 402.082031 599.09375 L 234.964844 599.09375 L 237.449219 560.761719 C 237.449219 560.761719 237.449219 561.261719 236.953125 561.261719 C 233.96875 564.25 230.488281 566.738281 227.003906 568.726562 L 225.015625 599.09375 L 209.597656 599.09375 C 208.601562 602.578125 207.609375 605.566406 206.613281 609.050781 Z M 259.832031 429.839844 L 240.933594 352.679688 C 246.902344 349.695312 252.867188 347.207031 258.835938 345.214844 L 279.230469 429.839844 Z M 349.359375 429.839844 L 289.175781 429.839844 L 268.289062 342.726562 C 270.773438 342.226562 273.757812 341.730469 276.246094 341.230469 C 283.707031 356.664062 301.613281 367.617188 319.019531 367.617188 C 336.925781 367.617188 354.332031 356.664062 361.792969 341.230469 C 364.777344 341.730469 367.761719 342.226562 370.25 342.726562 L 349.359375 428.347656 C 349.359375 429.34375 349.359375 429.34375 349.359375 429.839844 Z M 379.203125 429.839844 L 359.804688 429.839844 L 380.695312 345.710938 C 387.160156 347.703125 393.128906 350.191406 399.097656 353.179688 Z M 388.652344 431.335938 L 407.550781 358.15625 C 441.375 379.5625 463.257812 416.898438 463.257812 458.714844 L 463.257812 584.160156 C 463.257812 592.625 456.792969 599.09375 448.335938 599.09375 L 413.023438 599.09375 L 404.070312 453.238281 C 403.574219 443.28125 397.105469 435.316406 388.652344 431.335938 Z M 388.652344 431.335938 " fill-opacity="1" fill-rule="nonzero"/><g clip-path="url(#50e94c683f)"><path fill="#000000" d="M 134.496094 687.703125 C 133.996094 688.699219 133.003906 689.195312 132.503906 690.191406 C 130.515625 692.183594 130.515625 695.171875 132.503906 697.160156 C 133.5 698.15625 134.992188 698.65625 135.988281 698.65625 C 137.476562 698.65625 138.472656 698.15625 139.46875 697.160156 C 177.269531 659.828125 200.148438 615.523438 207.609375 563.75 C 213.078125 563.253906 223.027344 561.757812 229.988281 554.292969 C 239.9375 543.839844 239.441406 526.914062 239.441406 526.414062 C 239.441406 523.925781 237.449219 521.933594 234.964844 521.4375 C 234.964844 521.4375 233.472656 521.4375 231.980469 521.4375 C 239.441406 509.488281 235.957031 493.558594 235.957031 493.0625 C 235.460938 490.574219 232.972656 489.078125 230.488281 489.078125 C 230.488281 489.078125 230.488281 489.078125 229.988281 489.078125 C 235.957031 476.632812 230.984375 461.203125 230.984375 460.703125 C 230.488281 458.714844 228.496094 457.71875 226.507812 457.21875 C 231.480469 445.273438 227.003906 430.835938 227.003906 430.339844 C 226.011719 427.851562 223.523438 426.355469 221.039062 426.855469 C 221.039062 426.855469 220.539062 426.855469 219.546875 427.351562 C 224.019531 414.410156 218.054688 400.46875 217.554688 399.476562 C 216.5625 396.984375 214.074219 395.992188 211.585938 396.488281 C 211.089844 396.488281 205.121094 398.480469 199.152344 403.457031 C 199.648438 399.476562 199.648438 395.492188 198.15625 391.511719 C 194.179688 377.570312 178.761719 370.105469 178.261719 369.605469 C 175.777344 368.609375 173.289062 369.605469 171.796875 371.597656 C 171.300781 372.097656 162.84375 387.03125 166.824219 400.96875 C 167.816406 404.949219 170.304688 408.933594 172.792969 411.921875 C 165.828125 410.925781 160.359375 412.417969 159.859375 412.417969 C 157.375 412.914062 155.882812 415.40625 155.882812 417.894531 C 155.882812 418.390625 157.375 432.332031 165.828125 441.289062 C 163.34375 441.789062 161.851562 444.277344 161.851562 446.765625 C 161.851562 447.265625 163.34375 460.703125 171.300781 469.664062 C 170.304688 470.660156 169.808594 471.65625 169.808594 472.652344 C 169.808594 473.148438 168.8125 485.59375 174.78125 496.050781 C 172.292969 496.546875 170.800781 498.039062 170.304688 500.527344 C 170.304688 501.027344 169.308594 512.476562 174.285156 522.433594 C 172.292969 522.433594 170.800781 522.433594 170.304688 522.433594 C 167.816406 522.929688 165.828125 524.921875 165.828125 527.410156 C 165.828125 527.910156 165.828125 544.832031 175.777344 554.789062 C 182.242188 561.261719 191.195312 562.753906 197.164062 563.253906 C 191.195312 604.570312 174.285156 640.910156 147.921875 672.769531 C 157.375 624.980469 152.398438 579.679688 133.003906 535.375 C 137.480469 532.390625 145.4375 525.417969 147.921875 515.960938 C 151.40625 502.023438 142.453125 487.585938 141.953125 487.089844 C 140.460938 485.097656 137.976562 484.101562 135.488281 485.097656 C 135.488281 485.097656 133.5 486.09375 131.511719 487.585938 C 131.511719 487.089844 131.511719 486.09375 131.511719 485.59375 C 132.503906 470.660156 120.566406 458.214844 120.070312 457.21875 C 118.578125 455.230469 115.59375 455.230469 113.605469 456.722656 C 113.605469 456.722656 113.605469 456.722656 113.105469 456.722656 C 110.621094 444.773438 100.671875 435.316406 100.175781 435.316406 C 98.683594 433.824219 96.195312 433.824219 94.703125 434.820312 C 92.21875 422.375 81.773438 413.414062 81.273438 412.914062 C 79.285156 411.421875 76.300781 411.421875 74.808594 413.414062 C 74.808594 413.414062 73.816406 414.410156 72.820312 415.40625 C 72.820312 415.40625 72.820312 414.90625 72.820312 414.90625 C 69.339844 400.96875 54.914062 392.503906 54.417969 392.503906 C 52.425781 391.011719 49.445312 392.007812 47.953125 394 C 47.953125 394.496094 43.972656 399.476562 41.984375 406.941406 C 40.492188 402.460938 38.003906 398.480469 34.523438 394.996094 C 24.078125 385.039062 7.167969 386.035156 6.171875 386.035156 C 3.683594 386.035156 1.695312 388.523438 1.695312 391.011719 C 1.695312 391.511719 1.199219 408.933594 11.644531 418.890625 C 15.125 423.371094 20.597656 425.359375 25.570312 426.355469 C 19.105469 429.34375 15.125 432.828125 14.628906 433.324219 C 12.636719 434.820312 12.636719 437.804688 14.128906 439.796875 C 14.628906 440.296875 23.082031 451.746094 35.019531 455.230469 C 35.019531 456.226562 35.019531 457.21875 35.515625 458.714844 C 36.015625 459.210938 42.480469 470.660156 53.421875 476.136719 C 51.929688 477.132812 51.433594 478.128906 51.433594 478.128906 C 49.445312 480.121094 49.445312 482.609375 50.933594 484.597656 C 51.433594 485.097656 58.394531 494.554688 69.339844 498.039062 C 67.847656 499.535156 67.847656 502.023438 68.839844 503.515625 L 86.25 517.953125 C 83.265625 519.945312 80.777344 521.4375 80.777344 521.4375 C 78.789062 522.929688 78.292969 525.917969 79.78125 527.910156 C 80.28125 528.40625 89.234375 542.84375 103.160156 545.332031 C 104.652344 545.828125 106.144531 545.828125 107.636719 545.828125 C 114.101562 545.828125 120.070312 543.339844 124.050781 540.851562 C 143.945312 587.148438 147.425781 634.9375 134.496094 685.214844 C 134.496094 686.210938 134.496094 687.207031 134.496094 687.703125 Z M 193.683594 512.972656 C 197.660156 517.453125 199.152344 524.425781 199.152344 528.902344 C 195.171875 528.40625 189.207031 526.914062 185.226562 522.433594 C 181.246094 517.953125 179.753906 510.984375 179.753906 506.503906 C 183.734375 507.5 189.703125 508.992188 193.683594 512.972656 Z M 179.257812 479.125 C 183.238281 479.621094 189.207031 481.613281 193.183594 485.59375 C 197.164062 490.074219 198.65625 497.042969 198.65625 501.523438 C 194.675781 501.027344 188.707031 499.035156 184.730469 495.054688 C 180.75 490.074219 179.753906 483.605469 179.257812 479.125 Z M 228.496094 531.890625 C 228 536.371094 226.507812 543.339844 222.03125 547.324219 C 218.054688 551.304688 212.085938 552.796875 208.105469 553.296875 C 208.105469 552.796875 208.105469 552.300781 208.105469 551.804688 C 208.601562 547.324219 210.09375 541.847656 214.074219 537.367188 C 218.550781 533.882812 224.519531 532.390625 228.496094 531.890625 Z M 226.011719 500.527344 C 226.011719 505.007812 226.011719 511.980469 222.53125 516.957031 C 219.546875 521.4375 214.074219 523.925781 210.09375 525.417969 C 210.09375 522.929688 210.09375 520.9375 210.09375 518.449219 C 210.59375 514.964844 211.585938 511.980469 213.578125 508.992188 C 216.5625 504.015625 222.03125 501.523438 226.011719 500.527344 Z M 222.03125 468.667969 C 222.53125 473.148438 223.027344 480.121094 220.042969 485.59375 C 217.554688 490.574219 212.085938 493.558594 208.601562 495.054688 C 208.601562 492.5625 208.105469 490.074219 208.105469 487.585938 C 208.105469 484.597656 208.601562 481.113281 210.59375 478.625 C 212.582031 473.648438 218.054688 470.660156 222.03125 468.667969 Z M 218.054688 438.304688 C 218.550781 442.785156 219.046875 449.753906 216.0625 455.230469 C 213.578125 460.207031 208.105469 463.195312 204.625 464.6875 C 204.625 463.195312 204.125 462.199219 204.125 460.703125 C 204.125 456.722656 204.125 452.242188 206.117188 448.261719 C 208.601562 443.28125 214.074219 440.296875 218.054688 438.304688 Z M 198.15625 419.386719 C 200.644531 413.910156 205.617188 410.425781 209.101562 408.433594 C 210.09375 412.914062 211.089844 419.386719 208.601562 425.359375 C 206.613281 430.339844 201.640625 433.824219 198.15625 435.816406 C 197.660156 433.824219 197.164062 431.832031 196.664062 430.339844 C 196.664062 426.855469 196.664062 422.871094 198.15625 419.386719 Z M 177.269531 382.050781 C 180.75 384.539062 186.222656 389.019531 187.714844 394.996094 C 189.703125 400.96875 187.714844 407.9375 185.722656 411.921875 C 182.242188 409.429688 176.769531 404.949219 175.277344 398.976562 C 173.785156 393.003906 175.777344 386.035156 177.269531 382.050781 Z M 165.828125 421.875 C 169.808594 421.875 176.273438 422.375 180.75 425.859375 C 185.722656 429.839844 187.714844 435.816406 189.207031 440.296875 C 185.226562 440.296875 178.761719 439.796875 174.285156 436.3125 C 169.308594 432.828125 166.824219 426.355469 165.828125 421.875 Z M 171.796875 450.75 C 175.777344 450.75 182.242188 451.246094 186.71875 454.730469 C 191.195312 458.214844 193.183594 463.691406 194.675781 467.675781 C 194.675781 468.171875 194.675781 468.667969 195.171875 469.167969 C 191.195312 469.167969 185.226562 468.667969 180.75 465.183594 C 175.277344 461.699219 173.289062 455.230469 171.796875 450.75 Z M 182.738281 548.320312 C 178.261719 543.839844 176.769531 537.367188 176.273438 532.886719 C 180.253906 533.382812 186.222656 534.378906 190.699219 538.363281 C 195.171875 542.84375 196.664062 549.3125 197.164062 553.792969 C 192.6875 553.792969 186.71875 552.300781 182.738281 548.320312 Z M 96.695312 447.265625 C 99.679688 450.75 103.160156 456.226562 103.65625 462.695312 C 103.65625 465.683594 103.160156 468.171875 102.164062 470.660156 C 101.667969 471.65625 101.171875 473.148438 100.671875 474.144531 C 100.175781 475.640625 99.179688 476.632812 98.683594 477.628906 C 95.699219 474.144531 92.21875 468.667969 91.71875 462.199219 C 91.222656 456.226562 94.207031 450.75 96.695312 447.265625 Z M 77.792969 425.359375 C 80.777344 428.84375 84.757812 434.320312 84.757812 440.296875 C 85.253906 446.269531 82.269531 451.746094 79.78125 455.230469 C 76.800781 451.746094 72.820312 446.269531 72.820312 440.296875 C 72.324219 433.824219 75.308594 428.84375 77.792969 425.359375 Z M 52.425781 404.453125 C 55.910156 407.441406 60.882812 411.921875 62.375 417.894531 C 63.867188 423.371094 61.878906 429.34375 59.886719 433.324219 C 56.40625 430.339844 51.433594 425.859375 49.941406 419.886719 C 48.945312 414.410156 50.4375 408.433594 52.425781 404.453125 Z M 17.613281 411.921875 C 13.136719 407.441406 11.644531 400.96875 10.648438 396.488281 C 15.125 396.984375 21.589844 397.980469 26.066406 402.460938 C 30.542969 406.941406 32.035156 413.414062 33.03125 417.894531 C 29.050781 417.394531 22.085938 415.902344 17.613281 411.921875 Z M 39.496094 446.269531 C 33.527344 445.273438 28.054688 441.289062 25.070312 437.804688 C 28.554688 435.316406 34.023438 432.828125 39.992188 433.824219 C 44.46875 434.320312 48.449219 436.808594 51.433594 439.300781 C 52.425781 440.296875 53.421875 441.289062 54.417969 442.285156 C 50.933594 444.277344 45.464844 446.765625 39.496094 446.269531 Z M 46.957031 457.71875 C 50.933594 455.726562 56.40625 453.734375 61.878906 455.230469 C 67.847656 456.722656 72.324219 461.699219 75.308594 465.183594 C 71.328125 467.175781 65.855469 469.167969 60.386719 467.675781 C 54.417969 466.179688 49.941406 461.203125 46.957031 457.71875 Z M 76.800781 489.578125 C 70.832031 489.078125 65.359375 484.597656 61.878906 481.613281 C 65.359375 479.125 70.832031 476.136719 76.300781 477.132812 C 82.269531 477.628906 87.742188 482.109375 91.222656 485.097656 C 87.742188 487.585938 82.269531 490.074219 76.800781 489.578125 Z M 79.78125 503.019531 C 83.761719 501.027344 89.234375 499.035156 94.703125 500.527344 C 99.679688 501.523438 104.15625 505.507812 107.140625 508.992188 C 107.636719 509.488281 107.636719 509.988281 108.132812 510.484375 C 104.15625 512.476562 98.683594 514.46875 93.210938 512.972656 C 87.242188 510.984375 82.765625 506.503906 79.78125 503.019531 Z M 104.652344 535.875 C 98.683594 534.878906 93.710938 530.398438 90.726562 526.914062 C 94.207031 524.921875 100.175781 522.433594 105.648438 523.429688 C 111.613281 524.425781 116.589844 528.902344 119.574219 532.390625 C 116.089844 534.378906 110.121094 536.867188 104.652344 535.875 Z M 114.101562 500.527344 C 113.105469 499.035156 112.609375 498.039062 111.613281 496.546875 C 109.625 493.0625 108.132812 488.582031 108.132812 483.605469 C 108.132812 481.613281 108.628906 479.621094 109.625 478.128906 C 110.121094 477.132812 110.621094 476.136719 111.117188 474.644531 C 112.609375 472.15625 114.101562 470.164062 115.59375 468.667969 C 118.578125 472.652344 122.058594 479.125 121.5625 485.59375 C 121.066406 492.066406 117.085938 497.542969 114.101562 500.527344 Z M 128.527344 526.414062 C 126.535156 522.433594 124.546875 515.464844 126.039062 509.988281 C 127.53125 504.511719 132.007812 500.03125 134.992188 497.542969 C 136.980469 501.523438 138.96875 508.492188 137.476562 513.96875 C 136.484375 519.945312 132.007812 523.925781 128.527344 526.414062 Z M 128.527344 526.414062 " fill-opacity="1" fill-rule="nonzero"/></g><g clip-path="url(#d1ac34f2a8)"><path fill="#000000" d="M 512.996094 265.566406 C 510.011719 265.566406 508.023438 267.558594 508.023438 270.542969 L 508.023438 383.546875 C 490.613281 379.066406 478.179688 365.125 478.179688 348.699219 L 478.179688 270.542969 C 478.179688 267.558594 476.191406 265.566406 473.207031 265.566406 C 470.222656 265.566406 468.230469 267.558594 468.230469 270.542969 L 468.230469 348.699219 C 468.230469 371.597656 486.632812 390.515625 510.507812 394 C 511.003906 394.496094 512 394.496094 512.996094 394.496094 C 513.492188 394.496094 513.988281 394.496094 513.988281 394.496094 C 515.480469 394.496094 517.472656 394.496094 518.964844 394.496094 L 527.917969 394.496094 L 527.917969 693.179688 C 527.917969 696.167969 529.90625 698.15625 532.890625 698.15625 C 535.875 698.15625 537.863281 696.167969 537.863281 693.179688 L 537.863281 394.996094 L 546.816406 394.996094 C 548.804688 394.996094 550.296875 394.996094 552.289062 394.996094 C 552.785156 394.996094 553.28125 394.996094 553.28125 394.996094 C 554.277344 394.996094 554.773438 394.496094 555.769531 394 C 579.644531 390.015625 597.546875 371.101562 597.546875 348.699219 L 597.546875 270.542969 C 597.546875 267.558594 595.558594 265.566406 592.574219 265.566406 C 589.589844 265.566406 587.601562 267.558594 587.601562 270.542969 L 587.601562 348.699219 C 587.601562 365.125 575.167969 379.066406 558.257812 383.546875 L 558.257812 270.542969 C 558.257812 267.558594 556.265625 265.566406 553.28125 265.566406 C 550.296875 265.566406 548.308594 267.558594 548.308594 270.542969 L 548.308594 385.039062 C 547.8125 385.039062 547.3125 385.039062 546.816406 385.039062 L 519.460938 385.039062 C 518.964844 385.039062 518.464844 385.039062 518.464844 385.039062 L 518.464844 270.542969 C 517.96875 267.558594 515.980469 265.566406 512.996094 265.566406 Z M 512.996094 265.566406 " fill-opacity="1" fill-rule="nonzero"/></g><path fill="#000000" d="M 168.8125 562.753906 C 167.320312 561.261719 165.828125 559.769531 164.835938 557.777344 L 164.835938 583.664062 C 164.835938 592.625 169.308594 600.089844 176.273438 604.570312 C 177.269531 601.085938 178.761719 598.097656 179.753906 594.613281 L 174.78125 583.664062 L 174.78125 567.234375 C 172.792969 566.238281 170.800781 564.746094 168.8125 562.753906 Z M 168.8125 562.753906 " fill-opacity="1" fill-rule="nonzero"/></svg>