<svg xmlns="http://www.w3.org/2000/svg" xmlns:xlink="http://www.w3.org/1999/xlink" width="793" zoomAndPan="magnify" viewBox="0 0 595.5 842.249979" height="1122" preserveAspectRatio="xMidYMid meet" version="1.0"><defs><clipPath id="cd46d3c063"><path d="M 0.015625 0 L 594.984375 0 L 594.984375 841.5 L 0.015625 841.5 Z M 0.015625 0 " clip-rule="nonzero"/></clipPath><clipPath id="87fc82dc48"><path d="M 352 104.261719 L 446 104.261719 L 446 278 L 352 278 Z M 352 104.261719 " clip-rule="nonzero"/></clipPath><clipPath id="b5bb3a45b1"><path d="M 0.246094 442.355469 L 592.757812 442.355469 L 592.757812 664.691406 L 0.246094 664.691406 Z M 0.246094 442.355469 " clip-rule="nonzero"/></clipPath></defs><g clip-path="url(#cd46d3c063)"><path fill="#ffffff" d="M 0.015625 0 L 594.984375 0 L 594.984375 841.5 L 0.015625 841.5 Z M 0.015625 0 " fill-opacity="1" fill-rule="nonzero"/><path fill="#ffffff" d="M 0.015625 0 L 594.984375 0 L 594.984375 841.5 L 0.015625 841.5 Z M 0.015625 0 " fill-opacity="1" fill-rule="nonzero"/></g><path fill="#1a1a1a" d="M 521.625 331.058594 C 514.191406 336.394531 506.394531 340.996094 498.136719 345.863281 C 476.820312 358.429688 453.476562 372.210938 432.964844 401.695312 C 443.597656 360.546875 465.550781 304.449219 508.601562 283.570312 C 512.214844 281.820312 513.714844 277.472656 511.96875 273.867188 C 510.21875 270.261719 505.871094 268.757812 502.261719 270.503906 C 483.886719 279.417969 467.550781 294.464844 453.710938 315.222656 C 442.867188 331.5 433.503906 351.335938 425.886719 374.175781 C 422.644531 383.890625 420.003906 393.28125 417.863281 401.921875 C 414.652344 364.316406 414.425781 311.722656 432.316406 278.476562 C 452.34375 241.257812 486.058594 224.453125 518.65625 208.203125 C 541.257812 196.933594 562.925781 186.136719 577.707031 169.183594 C 580.59375 249.945312 562.5625 301.679688 521.625 331.058594 Z M 590.914062 145.640625 C 590.660156 142.300781 588.144531 139.566406 584.835938 139.03125 C 581.523438 138.496094 578.277344 140.292969 576.976562 143.378906 C 566.570312 168.089844 541.359375 180.660156 512.171875 195.207031 C 479.15625 211.667969 441.734375 230.320312 419.523438 271.597656 C 386.835938 332.339844 408.589844 445.117188 409.53125 449.886719 C 409.53125 449.894531 409.535156 449.898438 409.535156 449.902344 C 409.554688 449.992188 409.578125 450.074219 409.597656 450.164062 C 409.628906 450.292969 409.660156 450.417969 409.695312 450.542969 C 409.726562 450.636719 409.757812 450.722656 409.785156 450.8125 C 409.828125 450.933594 409.871094 451.054688 409.917969 451.171875 C 409.953125 451.253906 409.988281 451.335938 410.019531 451.417969 C 410.078125 451.542969 410.136719 451.667969 410.199219 451.792969 C 410.234375 451.859375 410.269531 451.925781 410.304688 451.996094 C 410.386719 452.140625 410.476562 452.28125 410.566406 452.425781 C 410.589844 452.464844 410.613281 452.507812 410.640625 452.542969 C 410.765625 452.722656 410.894531 452.902344 411.03125 453.066406 C 411.054688 453.101562 411.085938 453.128906 411.113281 453.164062 C 411.222656 453.292969 411.339844 453.421875 411.457031 453.542969 C 411.511719 453.601562 411.570312 453.65625 411.628906 453.710938 C 411.722656 453.800781 411.820312 453.894531 411.921875 453.976562 C 411.992188 454.039062 412.0625 454.097656 412.132812 454.15625 C 412.226562 454.230469 412.324219 454.304688 412.425781 454.375 C 412.503906 454.433594 412.582031 454.488281 412.660156 454.539062 C 412.769531 454.613281 412.882812 454.679688 412.996094 454.742188 C 413.097656 454.804688 413.199219 454.863281 413.304688 454.917969 C 413.453125 454.996094 413.605469 455.070312 413.761719 455.136719 C 413.847656 455.175781 413.9375 455.207031 414.023438 455.242188 C 414.144531 455.289062 414.261719 455.332031 414.382812 455.371094 C 414.472656 455.402344 414.5625 455.429688 414.65625 455.457031 C 414.785156 455.492188 414.917969 455.527344 415.050781 455.554688 C 415.132812 455.574219 415.214844 455.59375 415.304688 455.609375 C 415.46875 455.640625 415.632812 455.667969 415.800781 455.6875 C 415.847656 455.6875 415.894531 455.703125 415.941406 455.707031 C 415.953125 455.707031 415.964844 455.707031 415.976562 455.707031 C 415.984375 455.707031 416 455.710938 416.011719 455.710938 C 416.195312 455.730469 416.378906 455.738281 416.5625 455.738281 C 416.597656 455.738281 416.632812 455.742188 416.667969 455.742188 C 417.007812 455.742188 417.339844 455.710938 417.667969 455.667969 C 417.722656 455.65625 417.773438 455.652344 417.828125 455.640625 C 418.152344 455.589844 418.46875 455.519531 418.78125 455.421875 C 418.8125 455.414062 418.847656 455.398438 418.878906 455.390625 C 419.183594 455.292969 419.476562 455.175781 419.757812 455.042969 C 419.785156 455.03125 419.808594 455.019531 419.835938 455.007812 C 420.121094 454.871094 420.398438 454.710938 420.660156 454.53125 C 420.714844 454.5 420.765625 454.464844 420.820312 454.425781 C 421.078125 454.246094 421.328125 454.054688 421.558594 453.839844 C 421.585938 453.816406 421.613281 453.785156 421.640625 453.757812 C 421.855469 453.554688 422.058594 453.339844 422.246094 453.113281 C 422.28125 453.070312 422.316406 453.03125 422.347656 452.992188 C 422.546875 452.738281 422.730469 452.476562 422.894531 452.199219 C 422.921875 452.152344 422.949219 452.101562 422.980469 452.054688 C 423.144531 451.761719 423.292969 451.457031 423.417969 451.140625 C 423.421875 451.140625 423.421875 451.136719 423.421875 451.132812 C 446.0625 393.425781 476.289062 375.605469 505.515625 358.367188 C 513.6875 353.550781 522.136719 348.570312 530.101562 342.855469 C 554.753906 325.160156 571.632812 300.695312 581.695312 268.054688 C 591.734375 235.503906 594.746094 195.460938 590.914062 145.640625 " fill-opacity="1" fill-rule="nonzero"/><path fill="#1a1a1a" d="M 329.167969 332.984375 C 323.660156 329.738281 318.457031 326.667969 313.546875 323.144531 C 287.671875 304.578125 275.761719 272.15625 276.65625 221.945312 C 286.542969 231.320312 299.574219 237.816406 313.09375 244.558594 C 334.695312 255.324219 357.027344 266.457031 370.140625 290.832031 C 379.820312 308.816406 381.421875 335.558594 380.5 358.378906 C 371.78125 330.125 355.582031 296.441406 326.222656 282.203125 C 322.609375 280.449219 318.269531 281.957031 316.515625 285.566406 C 314.765625 289.171875 316.273438 293.515625 319.878906 295.269531 C 344.152344 307.039062 358.226562 336.191406 366.152344 361.460938 C 354.117188 347.707031 341.171875 340.0625 329.167969 332.984375 Z M 319.574219 231.5625 C 300.367188 221.988281 283.777344 213.71875 277.117188 197.90625 C 275.8125 194.816406 272.5625 193.019531 269.257812 193.554688 C 265.949219 194.09375 263.4375 196.824219 263.175781 200.164062 C 260.578125 233.980469 262.636719 261.203125 269.480469 283.390625 C 276.40625 305.863281 288.050781 322.722656 305.070312 334.9375 C 310.515625 338.847656 316.242188 342.222656 321.785156 345.492188 C 341.101562 356.878906 361.070312 368.65625 376.003906 406.710938 C 376.003906 406.714844 376.007812 406.714844 376.007812 406.71875 C 376.132812 407.039062 376.285156 407.339844 376.449219 407.636719 C 376.476562 407.683594 376.503906 407.726562 376.53125 407.773438 C 376.695312 408.050781 376.875 408.320312 377.078125 408.570312 C 377.109375 408.613281 377.144531 408.652344 377.179688 408.6875 C 377.367188 408.917969 377.566406 409.128906 377.78125 409.332031 C 377.8125 409.363281 377.839844 409.394531 377.871094 409.421875 C 378.101562 409.632812 378.347656 409.824219 378.601562 410 C 378.65625 410.042969 378.714844 410.078125 378.769531 410.117188 C 379.03125 410.289062 379.300781 410.449219 379.585938 410.585938 C 379.617188 410.601562 379.648438 410.613281 379.679688 410.628906 C 379.957031 410.757812 380.238281 410.871094 380.53125 410.964844 C 380.570312 410.976562 380.609375 410.992188 380.652344 411.003906 C 380.957031 411.097656 381.269531 411.167969 381.589844 411.21875 C 381.648438 411.230469 381.710938 411.238281 381.769531 411.246094 C 382.09375 411.292969 382.421875 411.320312 382.757812 411.320312 C 382.761719 411.320312 382.761719 411.320312 382.761719 411.320312 C 382.980469 411.320312 383.199219 411.3125 383.414062 411.292969 C 383.429688 411.292969 383.4375 411.289062 383.449219 411.289062 C 383.460938 411.285156 383.472656 411.285156 383.484375 411.285156 C 383.53125 411.28125 383.574219 411.269531 383.625 411.265625 C 383.792969 411.246094 383.960938 411.21875 384.125 411.191406 C 384.207031 411.171875 384.292969 411.152344 384.375 411.136719 C 384.507812 411.105469 384.640625 411.070312 384.773438 411.035156 C 384.863281 411.007812 384.949219 410.984375 385.039062 410.953125 C 385.164062 410.910156 385.289062 410.867188 385.410156 410.820312 C 385.492188 410.785156 385.578125 410.757812 385.660156 410.71875 C 385.832031 410.644531 386.003906 410.5625 386.167969 410.472656 C 386.253906 410.433594 386.332031 410.382812 386.414062 410.335938 C 386.535156 410.265625 386.652344 410.195312 386.765625 410.117188 C 386.84375 410.066406 386.917969 410.011719 386.992188 409.960938 C 387.09375 409.886719 387.199219 409.8125 387.296875 409.730469 C 387.367188 409.675781 387.433594 409.617188 387.5 409.5625 C 387.605469 409.472656 387.703125 409.382812 387.800781 409.289062 C 387.859375 409.230469 387.914062 409.179688 387.96875 409.125 C 388.085938 409 388.203125 408.871094 388.316406 408.738281 C 388.34375 408.707031 388.371094 408.679688 388.398438 408.648438 C 388.53125 408.480469 388.664062 408.304688 388.785156 408.125 C 388.8125 408.085938 388.835938 408.042969 388.859375 408.003906 C 388.953125 407.863281 389.039062 407.722656 389.117188 407.574219 C 389.15625 407.507812 389.191406 407.4375 389.226562 407.367188 C 389.289062 407.25 389.347656 407.125 389.40625 407 C 389.441406 406.914062 389.476562 406.835938 389.507812 406.75 C 389.558594 406.632812 389.597656 406.515625 389.640625 406.394531 C 389.671875 406.304688 389.703125 406.214844 389.730469 406.121094 C 389.765625 406 389.796875 405.875 389.824219 405.753906 C 389.847656 405.660156 389.871094 405.574219 389.890625 405.480469 C 389.890625 405.476562 389.890625 405.472656 389.894531 405.464844 C 390.535156 402.222656 405.320312 325.550781 382.933594 283.953125 C 367.636719 255.523438 342.101562 242.789062 319.574219 231.5625 " fill-opacity="1" fill-rule="nonzero"/><g clip-path="url(#87fc82dc48)"><path fill="#1a1a1a" d="M 366.597656 201.996094 C 366.730469 177.011719 379.132812 159 390.074219 143.109375 C 392.976562 138.890625 395.726562 134.898438 398.105469 130.992188 C 400.964844 136.207031 404.484375 141.632812 408.238281 147.410156 C 418.816406 163.710938 430.808594 182.191406 430.613281 201.882812 C 430.355469 227.273438 417.144531 240.632812 405.867188 251.171875 L 405.867188 179.28125 C 405.867188 175.273438 402.617188 172.019531 398.605469 172.019531 C 394.589844 172.019531 391.339844 175.273438 391.339844 179.28125 L 391.339844 250.941406 C 379.949219 240.308594 366.464844 226.902344 366.597656 201.996094 Z M 399.28125 277.871094 C 399.359375 277.863281 399.429688 277.855469 399.507812 277.839844 C 399.652344 277.824219 399.796875 277.804688 399.9375 277.777344 C 400.027344 277.761719 400.113281 277.742188 400.203125 277.726562 C 400.328125 277.695312 400.457031 277.664062 400.582031 277.628906 C 400.671875 277.597656 400.757812 277.578125 400.847656 277.546875 C 400.984375 277.503906 401.125 277.449219 401.257812 277.398438 C 401.355469 277.359375 401.449219 277.324219 401.535156 277.285156 C 401.695312 277.214844 401.851562 277.140625 402.003906 277.058594 C 402.082031 277.019531 402.15625 276.972656 402.226562 276.929688 C 402.339844 276.863281 402.453125 276.796875 402.566406 276.726562 C 402.636719 276.679688 402.710938 276.628906 402.777344 276.582031 C 402.894531 276.503906 403 276.421875 403.105469 276.335938 C 403.167969 276.289062 403.230469 276.242188 403.285156 276.191406 C 403.414062 276.082031 403.53125 275.976562 403.648438 275.863281 C 403.683594 275.824219 403.726562 275.792969 403.757812 275.757812 C 403.910156 275.605469 404.054688 275.445312 404.195312 275.277344 C 404.222656 275.246094 404.246094 275.210938 404.273438 275.179688 C 404.378906 275.042969 404.480469 274.90625 404.582031 274.765625 C 404.625 274.703125 404.664062 274.636719 404.707031 274.570312 C 404.78125 274.457031 404.855469 274.339844 404.921875 274.222656 C 404.964844 274.140625 405.007812 274.0625 405.050781 273.980469 C 405.109375 273.875 405.160156 273.765625 405.210938 273.652344 C 405.25 273.558594 405.292969 273.472656 405.328125 273.378906 C 405.378906 273.265625 405.417969 273.152344 405.457031 273.035156 C 405.492188 272.941406 405.523438 272.851562 405.554688 272.757812 C 405.554688 272.753906 405.558594 272.753906 405.558594 272.753906 C 406.164062 270.734375 410.480469 266.722656 414.285156 263.179688 C 426.441406 251.867188 444.808594 234.773438 445.140625 202.027344 C 445.378906 177.957031 431.542969 156.636719 420.421875 139.507812 C 413.371094 128.636719 406.703125 118.367188 405.820312 110.769531 C 405.398438 107.195312 402.433594 104.46875 398.839844 104.351562 C 395.257812 104.226562 392.105469 106.761719 391.457031 110.296875 C 390.160156 117.371094 384.574219 125.480469 378.105469 134.878906 C 366.578125 151.625 352.230469 172.464844 352.070312 201.914062 C 351.898438 234.0625 370.390625 251.285156 382.628906 262.679688 C 386.382812 266.167969 391.046875 270.511719 391.589844 272.527344 C 391.601562 272.570312 391.617188 272.609375 391.628906 272.648438 C 391.660156 272.753906 391.691406 272.863281 391.730469 272.96875 C 391.765625 273.074219 391.800781 273.175781 391.839844 273.277344 C 391.878906 273.375 391.917969 273.476562 391.960938 273.574219 C 392.011719 273.691406 392.070312 273.800781 392.125 273.914062 C 392.164062 273.996094 392.203125 274.074219 392.242188 274.148438 C 392.347656 274.335938 392.453125 274.515625 392.574219 274.691406 C 392.597656 274.726562 392.621094 274.757812 392.644531 274.789062 C 392.746094 274.9375 392.851562 275.078125 392.960938 275.214844 C 393.003906 275.269531 393.054688 275.320312 393.101562 275.375 C 393.195312 275.488281 393.292969 275.59375 393.394531 275.699219 C 393.449219 275.753906 393.507812 275.8125 393.5625 275.867188 C 393.664062 275.964844 393.765625 276.054688 393.871094 276.144531 C 393.933594 276.195312 393.992188 276.25 394.054688 276.300781 C 394.167969 276.390625 394.289062 276.480469 394.40625 276.566406 C 394.464844 276.601562 394.523438 276.648438 394.578125 276.6875 C 394.753906 276.800781 394.929688 276.914062 395.113281 277.011719 C 395.179688 277.046875 395.246094 277.074219 395.308594 277.109375 C 395.4375 277.171875 395.5625 277.238281 395.691406 277.292969 C 395.777344 277.332031 395.867188 277.367188 395.953125 277.402344 C 396.070312 277.445312 396.1875 277.488281 396.308594 277.527344 C 396.394531 277.558594 396.488281 277.585938 396.578125 277.613281 C 396.707031 277.648438 396.832031 277.679688 396.960938 277.710938 C 397.046875 277.730469 397.132812 277.753906 397.21875 277.769531 C 397.398438 277.804688 397.582031 277.832031 397.761719 277.855469 C 397.800781 277.859375 397.835938 277.863281 397.875 277.871094 C 398.074219 277.890625 398.285156 277.902344 398.488281 277.90625 C 398.53125 277.90625 398.5625 277.90625 398.605469 277.90625 C 398.832031 277.90625 399.054688 277.890625 399.28125 277.871094 " fill-opacity="1" fill-rule="nonzero"/></g><g clip-path="url(#b5bb3a45b1)"><path fill="#1a1a1a" d="M 588.066406 457.285156 L 587.773438 456.828125 C 579.023438 443.128906 561.363281 438.902344 547.578125 447.210938 C 521.90625 462.683594 476.152344 490.015625 459.734375 499.820312 C 454.53125 491.382812 445.636719 485.523438 435.121094 484.546875 L 340.4375 475.746094 C 338.847656 475.597656 337.292969 475.21875 335.8125 474.613281 L 283.875 453.386719 C 274.09375 449.390625 263.390625 447.925781 252.925781 449.15625 L 175.964844 458.1875 C 163.882812 459.605469 152.523438 464.488281 143.113281 472.304688 L 123.960938 488.210938 C 119.226562 492.140625 113.519531 494.59375 107.457031 495.304688 L 6.664062 507.140625 C 2.683594 507.613281 -0.167969 511.21875 0.296875 515.203125 C 0.765625 519.183594 4.378906 522.03125 8.359375 521.566406 L 109.15625 509.726562 C 118.015625 508.6875 126.34375 505.105469 133.246094 499.378906 L 152.398438 483.472656 C 159.640625 477.453125 168.375 473.699219 177.660156 472.613281 L 254.617188 463.578125 C 262.652344 462.632812 270.867188 463.757812 278.375 466.824219 L 330.3125 488.050781 C 333.125 489.203125 336.082031 489.925781 339.09375 490.203125 L 433.78125 499.003906 C 443.09375 499.867188 450.117188 507.742188 450.117188 517.320312 C 450.117188 527.238281 442.242188 535.488281 432.589844 535.710938 L 288.785156 538.441406 C 288.558594 538.445312 288.335938 538.457031 288.117188 538.484375 L 235.644531 544.335938 C 231.660156 544.78125 228.789062 548.371094 229.230469 552.355469 C 229.648438 556.066406 232.792969 558.8125 236.441406 558.8125 C 236.710938 558.8125 236.984375 558.800781 237.253906 558.769531 L 289.394531 552.953125 L 432.894531 550.230469 C 450.402344 549.824219 464.644531 535.066406 464.644531 517.320312 C 464.644531 516.167969 464.582031 515.03125 464.472656 513.90625 C 477.835938 505.925781 527.785156 476.097656 555.078125 459.648438 C 562.0625 455.4375 571.046875 457.628906 575.527344 464.636719 L 575.820312 465.097656 C 579.972656 471.601562 578.65625 480.1875 572.753906 485.070312 L 463.96875 575.101562 C 461.882812 576.832031 459.507812 578.078125 456.921875 578.808594 L 307.902344 620.863281 C 305.78125 621.464844 303.589844 621.683594 301.394531 621.523438 L 154.695312 610.730469 C 146.847656 610.152344 139.039062 611.019531 131.5 613.304688 L 8.988281 650.480469 C 5.148438 651.648438 2.980469 655.703125 4.144531 659.539062 C 5.097656 662.671875 7.976562 664.691406 11.09375 664.691406 C 11.792969 664.691406 12.503906 664.589844 13.207031 664.378906 L 135.71875 627.199219 C 141.542969 625.433594 147.566406 624.765625 153.628906 625.210938 L 300.328125 636.003906 C 304.214844 636.292969 308.09375 635.902344 311.847656 634.839844 L 460.867188 592.78125 C 465.417969 591.5 469.578125 589.316406 473.234375 586.289062 L 582.019531 496.253906 C 593.558594 486.707031 596.15625 469.953125 588.066406 457.285156 " fill-opacity="1" fill-rule="nonzero"/></g></svg>