<svg xmlns="http://www.w3.org/2000/svg" xmlns:xlink="http://www.w3.org/1999/xlink" width="793" zoomAndPan="magnify" viewBox="0 0 595.5 842.249979" height="1122" preserveAspectRatio="xMidYMid meet" version="1.0"><defs><clipPath id="6c585a4a61"><path d="M 0.015625 0 L 594.984375 0 L 594.984375 841.5 L 0.015625 841.5 Z M 0.015625 0 " clip-rule="nonzero"/></clipPath><clipPath id="fe260919bd"><path d="M 306 91.523438 L 434 91.523438 L 434 260 L 306 260 Z M 306 91.523438 " clip-rule="nonzero"/></clipPath><clipPath id="d16aae4129"><path d="M 6.238281 514 L 280 514 L 280 695.484375 L 6.238281 695.484375 Z M 6.238281 514 " clip-rule="nonzero"/></clipPath><clipPath id="e5244fe424"><path d="M 315 378 L 588.46875 378 L 588.46875 616 L 315 616 Z M 315 378 " clip-rule="nonzero"/></clipPath></defs><g clip-path="url(#6c585a4a61)"><path fill="#ffffff" d="M 0.015625 0 L 594.984375 0 L 594.984375 841.5 L 0.015625 841.5 Z M 0.015625 0 " fill-opacity="1" fill-rule="nonzero"/><path fill="#ffffff" d="M 0.015625 0 L 594.984375 0 L 594.984375 841.5 L 0.015625 841.5 Z M 0.015625 0 " fill-opacity="1" fill-rule="nonzero"/></g><g clip-path="url(#fe260919bd)"><path fill="#1d1d1b" d="M 326.964844 217.347656 C 343.6875 242.363281 364.433594 257.816406 365.304688 258.460938 C 366.589844 259.40625 368.101562 259.878906 369.621094 259.878906 C 371.039062 259.878906 372.453125 259.46875 373.6875 258.640625 C 374.597656 258.023438 396.222656 243.269531 413.164062 217.554688 C 426.34375 197.546875 433.027344 176.550781 433.027344 155.140625 C 433.027344 120.191406 404.585938 91.75 369.621094 91.75 C 334.660156 91.75 306.214844 120.1875 306.214844 155.140625 C 306.214844 175.824219 313.191406 196.75 326.957031 217.34375 C 326.960938 217.34375 326.964844 217.34375 326.964844 217.347656 Z M 369.621094 106.273438 C 396.570312 106.273438 418.5 128.191406 418.5 155.136719 C 418.5 173.660156 412.621094 191.96875 401.027344 209.5625 C 389.996094 226.304688 376.507812 238.105469 369.785156 243.425781 C 363.214844 237.871094 350.035156 225.726562 339.042969 209.277344 C 339.042969 209.273438 339.039062 209.273438 339.039062 209.269531 C 326.898438 191.105469 320.742188 172.890625 320.742188 155.136719 C 320.742188 128.191406 342.671875 106.273438 369.621094 106.273438 Z M 369.621094 106.273438 " fill-opacity="1" fill-rule="nonzero"/></g><path fill="#1d1d1b" d="M 369.621094 178.9375 C 382.914062 178.9375 393.726562 168.125 393.726562 154.839844 C 393.726562 141.550781 382.914062 130.738281 369.621094 130.738281 C 356.328125 130.738281 345.515625 141.546875 345.515625 154.839844 C 345.515625 168.128906 356.332031 178.9375 369.621094 178.9375 Z M 369.621094 145.261719 C 374.902344 145.261719 379.199219 149.558594 379.199219 154.839844 C 379.199219 160.117188 374.902344 164.414062 369.621094 164.414062 C 364.339844 164.414062 360.042969 160.117188 360.042969 154.839844 C 360.042969 149.558594 364.339844 145.261719 369.621094 145.261719 Z M 369.621094 145.261719 " fill-opacity="1" fill-rule="nonzero"/><g clip-path="url(#d16aae4129)"><path fill="#1d1d1b" d="M 272.703125 643.707031 L 265.003906 643.707031 L 265.003906 613.574219 C 265.003906 609.566406 261.75 606.3125 257.742188 606.3125 L 220.339844 606.3125 C 216.332031 606.3125 213.078125 609.566406 213.078125 613.574219 L 213.078125 643.707031 L 205.160156 643.707031 L 205.160156 563.828125 L 215.675781 563.828125 C 219.6875 563.828125 222.941406 560.574219 222.941406 556.566406 L 222.941406 521.882812 C 222.941406 517.875 219.6875 514.621094 215.675781 514.621094 L 13.597656 514.621094 C 9.585938 514.621094 6.332031 517.875 6.332031 521.882812 L 6.332031 556.566406 C 6.332031 560.574219 9.585938 563.828125 13.597656 563.828125 L 24.109375 563.828125 L 24.109375 688.359375 C 24.109375 692.367188 27.363281 695.621094 31.375 695.621094 L 272.699219 695.621094 C 276.707031 695.621094 279.960938 692.367188 279.960938 688.359375 L 279.960938 650.96875 C 279.964844 646.960938 276.714844 643.707031 272.703125 643.707031 Z M 227.605469 620.839844 L 250.480469 620.839844 L 250.480469 643.710938 L 227.605469 643.710938 Z M 20.859375 529.144531 L 208.414062 529.144531 L 208.414062 549.304688 L 20.859375 549.304688 Z M 38.640625 563.828125 L 190.632812 563.828125 L 190.632812 681.097656 L 171.773438 681.097656 L 171.773438 588.648438 C 171.773438 584.636719 168.515625 581.382812 164.507812 581.382812 L 64.769531 581.382812 C 60.757812 581.382812 57.503906 584.636719 57.503906 588.648438 L 57.503906 681.097656 L 38.644531 681.097656 L 38.644531 563.828125 Z M 72.03125 620.839844 L 157.242188 620.839844 L 157.242188 631.242188 L 72.03125 631.242188 Z M 157.242188 606.316406 L 72.03125 606.316406 L 72.03125 595.914062 L 157.242188 595.914062 Z M 72.03125 645.769531 L 157.242188 645.769531 L 157.242188 656.171875 L 72.03125 656.171875 Z M 72.03125 681.101562 L 72.03125 670.695312 L 157.242188 670.695312 L 157.242188 681.101562 Z M 205.160156 658.230469 L 228.035156 658.230469 L 228.035156 681.097656 L 205.160156 681.097656 Z M 265.4375 681.101562 L 242.566406 681.101562 L 242.566406 658.234375 L 265.441406 658.234375 L 265.441406 681.101562 Z M 265.4375 681.101562 " fill-opacity="1" fill-rule="nonzero"/></g><path fill="#1d1d1b" d="M 190.722656 392.945312 C 194.734375 392.945312 197.988281 389.691406 197.988281 385.683594 C 197.988281 381.671875 194.734375 378.421875 190.722656 378.421875 C 136.320312 378.421875 92.0625 334.175781 92.0625 279.785156 C 92.0625 225.398438 136.320312 181.152344 190.722656 181.152344 L 280.425781 181.152344 C 284.4375 181.152344 287.691406 177.898438 287.691406 173.890625 C 287.691406 169.882812 284.4375 166.628906 280.425781 166.628906 L 190.722656 166.628906 C 128.308594 166.628906 77.535156 217.390625 77.535156 279.785156 C 77.535156 342.179688 128.308594 392.945312 190.722656 392.945312 Z M 190.722656 392.945312 " fill-opacity="1" fill-rule="nonzero"/><g clip-path="url(#e5244fe424)"><path fill="#1d1d1b" d="M 466.933594 378.421875 C 462.921875 378.421875 459.667969 381.671875 459.667969 385.683594 C 459.667969 389.691406 462.921875 392.945312 466.933594 392.945312 C 526.085938 392.945312 574.207031 441.058594 574.207031 500.191406 C 574.207031 555.972656 528.8125 601.355469 473.015625 601.355469 L 323.003906 601.355469 C 318.992188 601.355469 315.738281 604.609375 315.738281 608.617188 C 315.738281 612.625 318.992188 615.878906 323.003906 615.878906 L 473.015625 615.878906 C 536.828125 615.878906 588.738281 563.984375 588.738281 500.191406 C 588.738281 433.046875 534.09375 378.421875 466.933594 378.421875 Z M 466.933594 378.421875 " fill-opacity="1" fill-rule="nonzero"/></g><path fill="#1d1d1b" d="M 354.078125 435.296875 C 357.058594 443.460938 364.878906 449.316406 374.058594 449.316406 C 383.242188 449.316406 391.0625 443.460938 394.039062 435.296875 L 420.429688 435.296875 C 424.441406 435.296875 427.695312 432.046875 427.695312 428.035156 L 427.695312 332.445312 C 427.695312 328.4375 424.441406 325.183594 420.429688 325.183594 L 289.085938 325.183594 C 285.078125 325.183594 281.820312 328.4375 281.820312 332.445312 L 281.820312 352.328125 L 245.417969 352.328125 C 242.828125 352.328125 240.429688 353.707031 239.132812 355.945312 L 219.285156 390.171875 C 219.238281 390.253906 219.21875 390.347656 219.175781 390.4375 C 218.96875 390.824219 218.800781 391.234375 218.667969 391.664062 C 218.617188 391.8125 218.566406 391.953125 218.53125 392.101562 C 218.402344 392.644531 218.3125 393.203125 218.308594 393.785156 C 218.308594 393.789062 218.304688 393.796875 218.304688 393.808594 C 218.304688 393.8125 218.304688 393.8125 218.304688 393.816406 L 218.304688 428.039062 C 218.304688 432.050781 221.5625 435.300781 225.570312 435.300781 L 241.148438 435.300781 C 244.128906 443.464844 251.949219 449.320312 261.128906 449.320312 C 270.3125 449.320312 278.136719 443.464844 281.113281 435.300781 L 354.078125 435.300781 Z M 374.058594 434.792969 C 370.332031 434.792969 367.304688 431.765625 367.304688 428.039062 C 367.304688 424.316406 370.332031 421.28125 374.058594 421.28125 C 377.785156 421.28125 380.816406 424.316406 380.816406 428.039062 C 380.816406 431.765625 377.785156 434.792969 374.058594 434.792969 Z M 296.351562 339.707031 L 413.171875 339.707031 L 413.171875 420.777344 L 394.070312 420.777344 C 391.09375 412.609375 383.25 406.757812 374.058594 406.757812 C 364.871094 406.757812 357.023438 412.609375 354.050781 420.777344 L 296.351562 420.777344 Z M 249.601562 366.851562 L 281.820312 366.851562 L 281.820312 386.550781 L 238.175781 386.550781 Z M 232.832031 401.074219 L 281.820312 401.074219 L 281.820312 420.773438 L 281.140625 420.773438 C 278.164062 412.605469 270.320312 406.753906 261.128906 406.753906 C 251.945312 406.753906 244.09375 412.605469 241.121094 420.773438 L 232.832031 420.773438 Z M 261.125 434.792969 C 257.398438 434.792969 254.371094 431.765625 254.371094 428.039062 C 254.371094 424.316406 257.398438 421.28125 261.125 421.28125 C 264.851562 421.28125 267.886719 424.316406 267.886719 428.039062 C 267.886719 431.765625 264.851562 434.792969 261.125 434.792969 Z M 261.125 434.792969 " fill-opacity="1" fill-rule="nonzero"/></svg>