<svg xmlns="http://www.w3.org/2000/svg" xmlns:xlink="http://www.w3.org/1999/xlink" width="793" zoomAndPan="magnify" viewBox="0 0 595.5 842.249979" height="1122" preserveAspectRatio="xMidYMid meet" version="1.0"><defs><clipPath id="98e50064f0"><path d="M 0.015625 0 L 594.984375 0 L 594.984375 841.5 L 0.015625 841.5 Z M 0.015625 0 " clip-rule="nonzero"/></clipPath><clipPath id="3310b6280c"><path d="M 356 349 L 594.984375 349 L 594.984375 527 L 356 527 Z M 356 349 " clip-rule="nonzero"/></clipPath><clipPath id="a363198232"><path d="M 517 532 L 566 532 L 566 580.3125 L 517 580.3125 Z M 517 532 " clip-rule="nonzero"/></clipPath><clipPath id="97c4d83151"><path d="M 412 532 L 461 532 L 461 580.3125 L 412 580.3125 Z M 412 532 " clip-rule="nonzero"/></clipPath><clipPath id="02fd2d8c14"><path d="M 0.015625 166 L 505 166 L 505 423 L 0.015625 423 Z M 0.015625 166 " clip-rule="nonzero"/></clipPath></defs><g clip-path="url(#98e50064f0)"><path fill="#ffffff" d="M 0.015625 0 L 594.984375 0 L 594.984375 841.5 L 0.015625 841.5 Z M 0.015625 0 " fill-opacity="1" fill-rule="nonzero"/><path fill="#ffffff" d="M 0.015625 0 L 594.984375 0 L 594.984375 841.5 L 0.015625 841.5 Z M 0.015625 0 " fill-opacity="1" fill-rule="nonzero"/></g><path fill="#000000" d="M 170.53125 471.929688 L 221.691406 471.929688 C 224.054688 471.929688 225.972656 470.015625 225.972656 467.652344 L 225.972656 236.734375 L 166.25 278.0625 L 166.25 467.652344 C 166.25 470.015625 168.167969 471.929688 170.53125 471.929688 Z M 170.53125 471.929688 " fill-opacity="1" fill-rule="nonzero"/><path fill="#000000" d="M 253.671875 471.929688 L 304.828125 471.929688 C 307.195312 471.929688 309.109375 470.015625 309.109375 467.652344 L 309.109375 279.34375 L 249.390625 236.945312 L 249.390625 467.652344 C 249.390625 470.015625 251.304688 471.929688 253.671875 471.929688 Z M 253.671875 471.929688 " fill-opacity="1" fill-rule="nonzero"/><g clip-path="url(#3310b6280c)"><path fill="#000000" d="M 575.300781 485.75 L 584.144531 441.054688 L 594.4375 389.050781 C 594.9375 386.519531 594.277344 383.898438 592.636719 381.90625 C 590.996094 379.914062 588.550781 378.757812 585.96875 378.757812 L 408.699219 378.757812 L 408.121094 374.757812 C 407.167969 368.164062 404.003906 362.101562 399.167969 357.554688 C 398.871094 357.273438 398.570312 357 398.261719 356.734375 C 397.800781 356.335938 397.332031 355.957031 396.851562 355.589844 C 396.398438 355.246094 395.941406 354.917969 395.472656 354.601562 C 395.191406 354.410156 394.910156 354.226562 394.621094 354.046875 C 394.511719 353.976562 394.402344 353.914062 394.292969 353.847656 C 389.710938 351.058594 384.421875 349.558594 378.996094 349.558594 L 364.808594 349.558594 C 360.042969 349.558594 356.179688 353.417969 356.179688 358.179688 C 356.179688 362.050781 358.730469 365.324219 362.242188 366.414062 C 363.054688 366.667969 363.917969 366.804688 364.8125 366.804688 L 378.996094 366.804688 C 381.433594 366.804688 383.738281 367.542969 385.671875 368.820312 C 388.496094 370.683594 390.527344 373.695312 391.035156 377.21875 L 392.679688 388.609375 C 392.679688 388.613281 392.679688 388.613281 392.679688 388.613281 L 400.777344 444.679688 L 406.648438 485.308594 L 408.648438 499.15625 C 408.992188 501.542969 409.605469 503.863281 410.46875 506.082031 C 412.324219 510.863281 415.332031 515.15625 419.265625 518.5625 C 423.1875 521.957031 427.863281 524.3125 432.847656 525.46875 C 435.179688 526.007812 437.582031 526.289062 440.011719 526.289062 L 568.167969 526.289062 C 568.761719 526.289062 569.34375 526.226562 569.90625 526.113281 C 573.839844 525.308594 576.800781 521.832031 576.800781 517.664062 C 576.800781 512.902344 572.933594 509.042969 568.167969 509.042969 L 440.011719 509.042969 C 439.238281 509.042969 438.472656 508.976562 437.714844 508.855469 C 435.085938 508.433594 432.605469 507.289062 430.570312 505.527344 C 429.71875 504.789062 428.960938 503.957031 428.3125 503.054688 C 426.964844 501.183594 426.070312 499.003906 425.738281 496.691406 L 425.160156 492.699219 L 566.839844 492.699219 C 570.957031 492.699219 574.503906 489.789062 575.300781 485.75 Z M 559.742188 475.453125 L 422.667969 475.453125 L 417.070312 436.703125 L 411.191406 396 L 575.464844 396 L 567.011719 438.730469 Z M 559.742188 475.453125 " fill-opacity="1" fill-rule="nonzero"/></g><g clip-path="url(#a363198232)"><path fill="#000000" d="M 547.914062 533.410156 C 545.832031 532.820312 543.636719 532.503906 541.367188 532.503906 C 528.171875 532.503906 517.4375 543.226562 517.4375 556.40625 C 517.4375 567.320312 524.800781 576.550781 534.824219 579.402344 C 536.90625 579.992188 539.101562 580.308594 541.367188 580.308594 C 554.5625 580.308594 565.296875 569.585938 565.296875 556.40625 C 565.296875 545.492188 557.9375 536.261719 547.914062 533.410156 Z M 534.703125 556.40625 C 534.703125 552.734375 537.691406 549.746094 541.367188 549.746094 C 542.058594 549.746094 542.722656 549.851562 543.347656 550.046875 C 546.058594 550.890625 548.035156 553.421875 548.035156 556.40625 C 548.035156 560.078125 545.042969 563.0625 541.367188 563.0625 C 540.679688 563.0625 540.011719 562.957031 539.386719 562.761719 C 536.675781 561.917969 534.703125 559.390625 534.703125 556.40625 Z M 534.703125 556.40625 " fill-opacity="1" fill-rule="nonzero"/></g><path fill="#000000" d="M 364.808594 339.476562 L 378.992188 339.476562 C 383.546875 339.476562 388.027344 340.265625 392.25 341.769531 L 392.25 277.027344 L 350.09375 308.4375 L 332.527344 295.96875 L 332.527344 467.652344 C 332.527344 470.015625 334.445312 471.929688 336.808594 471.929688 L 387.96875 471.929688 C 390.332031 471.929688 392.25 470.015625 392.25 467.652344 L 392.25 456.207031 L 381.046875 378.65625 C 380.90625 377.675781 379.984375 376.878906 378.992188 376.878906 L 364.808594 376.878906 C 354.484375 376.878906 346.085938 368.488281 346.085938 358.175781 C 346.085938 347.863281 354.484375 339.476562 364.808594 339.476562 Z M 364.808594 339.476562 " fill-opacity="1" fill-rule="nonzero"/><path fill="#000000" d="M 417.148438 368.679688 L 475.390625 368.679688 L 475.390625 215.078125 L 415.667969 259.578125 L 415.667969 364.257812 C 416.246094 365.695312 416.742188 367.171875 417.148438 368.679688 Z M 417.148438 368.679688 " fill-opacity="1" fill-rule="nonzero"/><g clip-path="url(#97c4d83151)"><path fill="#000000" d="M 436.472656 532.503906 C 434.617188 532.503906 432.8125 532.714844 431.078125 533.117188 C 420.472656 535.570312 412.546875 545.082031 412.546875 556.40625 C 412.546875 569.589844 423.28125 580.3125 436.476562 580.3125 C 438.539062 580.3125 440.539062 580.050781 442.449219 579.558594 C 442.570312 579.527344 442.6875 579.492188 442.804688 579.460938 C 442.875 579.441406 442.949219 579.421875 443.019531 579.402344 C 446.140625 578.511719 449.007812 577.003906 451.472656 575.019531 C 456.914062 570.632812 460.402344 563.921875 460.402344 556.40625 C 460.402344 551.339844 458.816406 546.636719 456.109375 542.761719 C 451.78125 536.566406 444.59375 532.503906 436.472656 532.503906 Z M 438.136719 562.855469 C 438.070312 562.871094 438 562.886719 437.929688 562.902344 C 437.890625 562.910156 437.851562 562.921875 437.8125 562.929688 C 437.382812 563.019531 436.929688 563.066406 436.472656 563.066406 C 432.796875 563.066406 429.808594 560.078125 429.808594 556.40625 C 429.808594 553.195312 432.097656 550.507812 435.128906 549.886719 C 435.5625 549.796875 436.011719 549.75 436.472656 549.75 C 438.703125 549.75 440.679688 550.851562 441.890625 552.539062 C 442.675781 553.628906 443.136719 554.964844 443.136719 556.40625 C 443.136719 558.394531 442.261719 560.175781 440.878906 561.398438 C 440.101562 562.082031 439.167969 562.589844 438.136719 562.855469 Z M 438.136719 562.855469 " fill-opacity="1" fill-rule="nonzero"/></g><path fill="#000000" d="M 396.679688 486.886719 L 396.664062 486.789062 L 396.652344 486.699219 L 166.25 486.699219 L 166.25 503.945312 L 399.289062 503.945312 C 399.035156 502.839844 398.824219 501.722656 398.660156 500.59375 Z M 396.679688 486.886719 " fill-opacity="1" fill-rule="nonzero"/><g clip-path="url(#02fd2d8c14)"><path fill="#000000" d="M 128.164062 349.261719 C 121.394531 342.5 113.53125 337.167969 104.78125 333.40625 C 114.25 325.132812 120.246094 312.980469 120.246094 299.457031 C 120.246094 297.316406 120.089844 295.210938 119.800781 293.148438 L 238.1875 211.734375 L 350.800781 291.683594 L 473.234375 200.449219 L 484.425781 215.425781 C 485.710938 217.148438 488.40625 216.722656 489.101562 214.683594 L 504.4375 169.53125 C 505.042969 167.757812 503.675781 165.933594 501.800781 166.003906 L 454.105469 167.859375 C 451.953125 167.941406 450.777344 170.402344 452.066406 172.125 L 462.910156 186.632812 L 350.554688 270.351562 L 238.34375 190.6875 L 113.832031 276.316406 C 105.933594 263.175781 91.527344 254.363281 75.101562 254.363281 C 50.207031 254.363281 29.957031 274.59375 29.957031 299.457031 C 29.957031 312.980469 35.949219 325.132812 45.417969 333.40625 C 36.671875 337.171875 28.804688 342.5 22.039062 349.261719 C 15.148438 356.140625 9.742188 364.15625 5.960938 373.082031 C 2.046875 382.332031 0.0585938 392.148438 0.0585938 402.261719 L 0.0585938 413.421875 C 0.0585938 418.183594 3.925781 422.042969 8.691406 422.042969 L 141.507812 422.042969 C 146.273438 422.042969 150.136719 418.183594 150.136719 413.421875 L 150.136719 402.261719 C 150.136719 392.148438 148.152344 382.332031 144.238281 373.082031 C 140.460938 364.15625 135.050781 356.140625 128.164062 349.261719 Z M 75.101562 271.605469 C 90.476562 271.605469 102.980469 284.101562 102.980469 299.457031 C 102.980469 314.8125 90.476562 327.304688 75.101562 327.304688 C 59.730469 327.304688 47.222656 314.8125 47.222656 299.457031 C 47.222656 284.101562 59.730469 271.605469 75.101562 271.605469 Z M 132.878906 404.796875 L 17.328125 404.796875 L 17.328125 402.261719 C 17.328125 386.847656 23.335938 372.351562 34.25 361.453125 C 45.164062 350.550781 59.671875 344.550781 75.101562 344.550781 C 90.535156 344.550781 105.042969 350.550781 115.957031 361.453125 C 126.867188 372.351562 132.878906 386.847656 132.878906 402.261719 Z M 132.878906 404.796875 " fill-opacity="1" fill-rule="nonzero"/></g></svg>