<svg xmlns="http://www.w3.org/2000/svg" xmlns:xlink="http://www.w3.org/1999/xlink" width="793" zoomAndPan="magnify" viewBox="0 0 595.5 842.249979" height="1122" preserveAspectRatio="xMidYMid meet" version="1.0"><defs><clipPath id="b217ba24c9"><path d="M 0.015625 0 L 594.984375 0 L 594.984375 841.5 L 0.015625 841.5 Z M 0.015625 0 " clip-rule="nonzero"/></clipPath><clipPath id="c30c038362"><path d="M 6.28125 366 L 594.507812 366 L 594.507812 644.300781 L 6.28125 644.300781 Z M 6.28125 366 " clip-rule="nonzero"/></clipPath></defs><g clip-path="url(#b217ba24c9)"><path fill="#ffffff" d="M 0.015625 0 L 594.984375 0 L 594.984375 841.5 L 0.015625 841.5 Z M 0.015625 0 " fill-opacity="1" fill-rule="nonzero"/><path fill="#ffffff" d="M 0.015625 0 L 594.984375 0 L 594.984375 841.5 L 0.015625 841.5 Z M 0.015625 0 " fill-opacity="1" fill-rule="nonzero"/></g><path fill="#231f20" d="M 142.007812 211.195312 C 174.246094 211.195312 200.472656 237.4375 200.472656 269.699219 C 200.472656 301.929688 174.246094 328.152344 142.007812 328.152344 C 109.785156 328.152344 83.566406 301.929688 83.566406 269.699219 C 83.566406 237.4375 109.785156 211.195312 142.007812 211.195312 Z M 142.007812 342.3125 C 182.050781 342.3125 214.625 309.738281 214.625 269.699219 C 214.625 229.632812 182.050781 197.03125 142.007812 197.03125 C 101.980469 197.03125 69.414062 229.632812 69.414062 269.699219 C 69.414062 309.738281 101.980469 342.3125 142.007812 342.3125 " fill-opacity="1" fill-rule="nonzero"/><g clip-path="url(#c30c038362)"><path fill="#231f20" d="M 543.441406 566.578125 L 536.183594 471.003906 C 535.894531 467.207031 532.691406 464.3125 528.859375 464.460938 C 525.058594 464.605469 522.050781 467.734375 522.050781 471.535156 L 522.050781 566.578125 L 437.527344 566.578125 L 423.707031 444.097656 C 423.695312 443.964844 423.6875 443.828125 423.675781 443.695312 C 422.023438 427.5 408.554688 415.289062 392.335938 415.289062 L 355.390625 415.289062 L 357.402344 397.46875 C 357.429688 397.207031 357.445312 396.890625 357.445312 396.625 C 357.445312 395.371094 357.578125 394.179688 357.878906 392.941406 C 358.519531 390.070312 359.9375 387.488281 362.058594 385.40625 C 365.003906 382.417969 368.921875 380.773438 373.097656 380.773438 L 544.46875 380.773438 C 552.386719 380.773438 559.023438 386.664062 560.0625 394.539062 C 560.074219 394.824219 560.101562 395.117188 560.148438 395.410156 L 579.433594 566.578125 Z M 390.753906 630.0625 L 382.910156 526.949219 C 382.621094 523.152344 379.394531 520.277344 375.589844 520.40625 C 371.785156 520.554688 368.777344 523.679688 368.777344 527.484375 L 368.777344 630.0625 L 232.074219 630.0625 L 232.074219 527.484375 C 232.074219 523.679688 229.066406 520.554688 225.265625 520.40625 C 221.507812 520.292969 218.230469 523.152344 217.941406 526.949219 L 210.097656 630.0625 L 170.382812 630.0625 L 190.960938 447.875 C 190.988281 447.609375 191.003906 447.292969 191.003906 447.027344 C 191.003906 445.683594 191.15625 444.375 191.488281 442.992188 C 192.195312 439.808594 193.78125 436.914062 196.070312 434.621094 C 199.402344 431.289062 203.761719 429.457031 208.347656 429.457031 L 392.335938 429.457031 C 401.03125 429.457031 408.554688 436.207031 409.566406 444.875 C 409.574219 445.035156 409.585938 445.195312 409.605469 445.355469 L 409.601562 445.355469 L 430.445312 630.0625 Z M 78.871094 566.578125 L 78.871094 471.535156 C 78.871094 467.734375 75.867188 464.605469 72.066406 464.460938 C 68.261719 464.351562 65.03125 467.207031 64.738281 470.996094 L 57.425781 566.578125 L 21.445312 566.578125 L 40.566406 397.476562 C 40.59375 397.207031 40.609375 396.890625 40.609375 396.625 C 40.609375 395.285156 40.734375 394.085938 40.988281 392.976562 C 41.648438 390.078125 43.082031 387.492188 45.238281 385.386719 C 48.15625 382.414062 52.070312 380.773438 56.257812 380.773438 L 227.613281 380.773438 C 235.546875 380.773438 242.179688 386.679688 243.1875 394.566406 C 243.195312 394.8125 243.21875 395.0625 243.253906 395.304688 L 245.507812 415.289062 L 208.347656 415.289062 C 199.980469 415.289062 192.066406 418.601562 186.0625 424.609375 C 181.863281 428.8125 178.964844 434.105469 177.703125 439.785156 C 177.167969 441.992188 176.882812 444.289062 176.851562 446.652344 L 163.308594 566.578125 Z M 594.300781 572.105469 L 574.21875 393.867188 C 574.210938 393.71875 574.203125 393.574219 574.1875 393.425781 C 572.539062 378.140625 559.769531 366.609375 544.46875 366.609375 L 373.097656 366.609375 C 365.117188 366.609375 357.613281 369.746094 352.058594 375.378906 C 348.0625 379.3125 345.300781 384.316406 344.097656 389.730469 C 343.59375 391.800781 343.324219 393.980469 343.292969 396.253906 L 341.152344 415.289062 L 259.75 415.289062 L 257.335938 393.867188 C 257.328125 393.722656 257.320312 393.582031 257.304688 393.441406 C 255.691406 378.148438 242.929688 366.609375 227.613281 366.609375 L 56.257812 366.609375 C 48.242188 366.609375 40.742188 369.757812 35.246094 375.359375 C 31.246094 379.261719 28.460938 384.261719 27.191406 389.820312 C 26.730469 391.832031 26.484375 393.976562 26.460938 396.257812 L 6.492188 572.863281 C 6.265625 574.863281 6.902344 576.871094 8.246094 578.375 C 9.589844 579.878906 11.507812 580.738281 13.523438 580.738281 L 63.980469 580.738281 C 65.421875 580.738281 66.765625 580.308594 67.890625 579.5625 C 69.007812 580.308594 70.351562 580.738281 71.796875 580.738281 L 161.707031 580.738281 L 155.425781 636.347656 C 155.199219 638.351562 155.839844 640.355469 157.179688 641.859375 C 158.523438 643.363281 160.445312 644.222656 162.457031 644.222656 L 216.65625 644.222656 C 218.210938 644.222656 219.652344 643.722656 220.828125 642.867188 C 221.996094 643.722656 223.4375 644.222656 225 644.222656 L 375.855469 644.222656 C 377.410156 644.222656 378.851562 643.722656 380.023438 642.867188 C 381.195312 643.722656 382.640625 644.222656 384.1875 644.222656 L 438.371094 644.222656 C 438.378906 644.222656 438.390625 644.222656 438.410156 644.222656 C 442.316406 644.222656 445.484375 641.050781 445.484375 637.144531 C 445.484375 636.609375 445.425781 636.089844 445.316406 635.589844 L 439.125 580.738281 L 529.125 580.738281 C 530.5625 580.738281 531.890625 580.316406 533.007812 579.582031 C 534.121094 580.316406 535.453125 580.738281 536.878906 580.738281 L 587.355469 580.738281 C 587.371094 580.738281 587.382812 580.738281 587.398438 580.738281 C 591.304688 580.738281 594.476562 577.570312 594.476562 573.65625 C 594.476562 573.125 594.414062 572.605469 594.300781 572.105469 " fill-opacity="1" fill-rule="nonzero"/></g><path fill="#231f20" d="M 458.890625 211.195312 C 491.132812 211.195312 517.359375 237.4375 517.359375 269.695312 C 517.359375 301.925781 491.132812 328.148438 458.890625 328.148438 C 426.65625 328.148438 400.425781 301.925781 400.425781 269.695312 C 400.425781 237.4375 426.65625 211.195312 458.890625 211.195312 Z M 458.890625 342.316406 C 498.9375 342.316406 531.511719 309.738281 531.511719 269.695312 C 531.511719 229.625 498.9375 197.03125 458.890625 197.03125 C 418.851562 197.03125 386.277344 229.625 386.277344 269.695312 C 386.277344 309.738281 418.851562 342.316406 458.890625 342.316406 " fill-opacity="1" fill-rule="nonzero"/><path fill="#231f20" d="M 300.4375 247.402344 C 335.316406 247.402344 363.691406 275.808594 363.691406 310.726562 C 363.691406 345.652344 335.316406 374.070312 300.4375 374.070312 C 265.542969 374.070312 237.160156 345.652344 237.160156 310.726562 C 237.160156 275.808594 265.542969 247.402344 300.4375 247.402344 Z M 300.4375 388.234375 C 343.121094 388.234375 377.847656 353.464844 377.847656 310.726562 C 377.847656 267.996094 343.121094 233.238281 300.4375 233.238281 C 257.742188 233.238281 223.003906 267.996094 223.003906 310.726562 C 223.003906 353.464844 257.742188 388.234375 300.4375 388.234375 " fill-opacity="1" fill-rule="nonzero"/></svg>