<svg xmlns="http://www.w3.org/2000/svg" xmlns:xlink="http://www.w3.org/1999/xlink" width="793" zoomAndPan="magnify" viewBox="0 0 595.5 842.249979" height="1122" preserveAspectRatio="xMidYMid meet" version="1.0"><defs><clipPath id="88a4f34abe"><path d="M 0.015625 0 L 594.984375 0 L 594.984375 841.5 L 0.015625 841.5 Z M 0.015625 0 " clip-rule="nonzero"/></clipPath><clipPath id="3d9c34d430"><path d="M 0.015625 106.101562 L 594 106.101562 L 594 626 L 0.015625 626 Z M 0.015625 106.101562 " clip-rule="nonzero"/></clipPath></defs><g clip-path="url(#88a4f34abe)"><path fill="#ffffff" d="M 0.015625 0 L 594.984375 0 L 594.984375 841.5 L 0.015625 841.5 Z M 0.015625 0 " fill-opacity="1" fill-rule="nonzero"/><path fill="#ffffff" d="M 0.015625 0 L 594.984375 0 L 594.984375 841.5 L 0.015625 841.5 Z M 0.015625 0 " fill-opacity="1" fill-rule="nonzero"/></g><g clip-path="url(#3d9c34d430)"><path fill="#000000" d="M 402.496094 492.292969 L 291.828125 548.265625 C 288.402344 549.992188 284.21875 548.613281 282.488281 545.210938 C 280.773438 541.785156 282.136719 537.609375 285.5625 535.878906 L 395.644531 480.21875 L 398.386719 478.507812 C 399.070312 477.9375 399.675781 477.332031 400.191406 476.667969 C 401.261719 475.308594 402.015625 473.671875 402.441406 471.773438 L 402.496094 471.554688 C 402.863281 469.734375 402.863281 467.984375 402.511719 466.367188 C 402.125 464.691406 401.351562 463.054688 400.15625 461.507812 C 398.128906 458.914062 395.53125 456.796875 392.085938 455.65625 C 388.257812 454.40625 383.265625 454.238281 376.632812 455.675781 L 273.941406 477.957031 C 271.859375 478.417969 269.777344 477.867188 268.210938 476.652344 C 244.320312 461.011719 213.984375 444.78125 180.917969 437.972656 C 149.179688 431.441406 114.773438 433.578125 80.898438 453.375 L 80.898438 590.511719 L 272.007812 608.726562 C 281.234375 609.773438 289.894531 609.574219 298.238281 608.027344 C 306.601562 606.5 314.761719 603.648438 322.992188 599.417969 L 455.601562 531.242188 L 579.808594 405.644531 C 579.992188 405.296875 579.84375 404.484375 579.476562 403.457031 C 578.941406 402.019531 577.945312 400.511719 576.546875 399.132812 C 575.054688 397.660156 573.140625 396.390625 570.910156 395.542969 C 565.789062 393.628906 558.882812 394.035156 550.996094 399.40625 C 550.796875 399.574219 550.574219 399.738281 550.335938 399.886719 L 406.199219 489.992188 C 405.035156 490.835938 403.820312 491.609375 402.496094 492.292969 Z M 284.570312 279.273438 L 260.382812 255.113281 C 257.125 251.859375 251.800781 251.859375 248.539062 255.113281 C 245.277344 258.371094 245.277344 263.6875 248.539062 266.945312 L 283.371094 301.742188 C 284.699219 303.066406 286.871094 303.066406 288.179688 301.742188 L 345.207031 244.792969 C 348.449219 241.535156 348.449219 236.21875 345.207031 232.960938 C 341.949219 229.703125 336.605469 229.703125 333.363281 232.960938 L 286.980469 279.273438 C 286.320312 279.9375 285.230469 279.9375 284.570312 279.273438 Z M 296.875 167.253906 C 241.925781 167.253906 197.386719 211.746094 197.386719 266.632812 C 197.386719 321.5 241.925781 365.992188 296.875 365.992188 C 351.820312 365.992188 396.359375 321.5 396.359375 266.632812 C 396.359375 211.746094 351.820312 167.253906 296.875 167.253906 Z M 220.082031 266.632812 C 220.082031 224.257812 254.472656 189.921875 296.875 189.921875 C 339.277344 189.921875 373.648438 224.257812 373.648438 266.632812 C 373.648438 308.988281 339.277344 343.324219 296.875 343.324219 C 254.472656 343.324219 220.082031 308.988281 220.082031 266.632812 Z M 361.011719 141.347656 C 369.414062 138.679688 377.1875 136.195312 379.507812 135.476562 C 383.539062 134.207031 387.574219 134.742188 390.980469 137.226562 C 394.410156 139.710938 396.175781 143.371094 396.214844 147.585938 L 396.359375 167.199219 C 396.488281 183.722656 406.675781 197.707031 422.371094 202.914062 C 430.808594 205.710938 438.597656 208.269531 440.902344 209.039062 C 444.917969 210.382812 447.84375 213.179688 449.152344 217.191406 C 450.460938 221.222656 449.6875 225.175781 447.273438 228.636719 L 435.707031 245.324219 C 426.367188 258.777344 426.535156 275.816406 436.09375 289.097656 C 441.175781 296.148438 445.894531 302.660156 447.273438 304.609375 C 449.742188 308.050781 450.460938 312.027344 449.152344 316.054688 C 447.84375 320.066406 444.878906 322.789062 440.902344 324.207031 L 421.394531 331.160156 C 405.957031 336.664062 396.140625 350.59375 396.175781 366.949219 C 396.195312 375.488281 396.214844 383.324219 396.214844 385.664062 C 396.195312 389.894531 394.410156 393.539062 390.980469 396.023438 C 387.574219 398.507812 383.578125 398.964844 379.507812 397.789062 L 359.558594 391.957031 C 343.863281 387.375 327.746094 392.875 318.148438 406.125 C 313.15625 413.023438 308.570312 419.351562 307.1875 421.25 C 304.703125 424.671875 301.09375 426.566406 296.875 426.566406 C 292.636719 426.566406 289.117188 424.597656 286.558594 421.25 L 274.03125 404.964844 C 264.066406 391.992188 247.785156 386.933594 232.21875 391.972656 C 224.039062 394.605469 216.488281 397.050781 214.222656 397.789062 C 210.207031 399.058594 206.171875 398.507812 202.746094 396.023438 C 199.339844 393.539062 197.644531 389.894531 197.535156 385.664062 L 197.035156 365.203125 C 196.613281 348.84375 186.425781 335.171875 170.863281 330.09375 C 162.664062 327.410156 155.09375 324.960938 152.847656 324.207031 C 148.832031 322.882812 145.902344 320.066406 144.59375 316.054688 C 143.285156 312.042969 144.003906 308.050781 146.457031 304.609375 L 157.765625 288.769531 C 167.269531 275.445312 167.34375 258.390625 157.929688 244.976562 C 152.738281 237.578125 147.890625 230.679688 146.457031 228.636719 C 144.042969 225.175781 143.285156 221.222656 144.59375 217.191406 C 145.902344 213.179688 148.851562 210.4375 152.847656 209.039062 C 155.1875 208.210938 163.125 205.542969 171.652344 202.65625 C 187.21875 197.355469 197.238281 183.464844 197.386719 167.050781 L 197.535156 147.585938 C 197.570312 143.371094 199.339844 139.710938 202.746094 137.226562 C 206.171875 134.742188 210.1875 134.207031 214.222656 135.476562 L 233.066406 141.382812 C 248.871094 146.351562 265.320312 140.960938 275.101562 127.621094 C 280.3125 120.519531 285.121094 113.949219 286.558594 112 C 289.0625 108.59375 292.636719 106.679688 296.875 106.679688 C 301.09375 106.679688 304.648438 108.613281 307.1875 112 L 319.125 127.914062 C 328.980469 141.070312 345.335938 146.316406 361.011719 141.347656 Z M 416.585938 467.121094 L 543.113281 388.035156 C 555.402344 379.609375 566.914062 379.242188 575.792969 382.570312 C 579.917969 384.117188 583.472656 386.492188 586.273438 389.25 C 589.164062 392.085938 591.300781 395.414062 592.515625 398.726562 C 594.617188 404.542969 594.046875 410.484375 590.140625 414.902344 L 464.699219 541.75 C 464.183594 542.300781 463.574219 542.726562 462.949219 543.058594 L 329.347656 611.742188 C 319.917969 616.582031 310.488281 619.875 300.742188 621.660156 C 290.980469 623.445312 280.996094 623.722656 270.476562 622.527344 L 78.980469 604.238281 C 77.34375 608.820312 74.691406 612.921875 71.320312 616.308594 C 65.40625 622.214844 57.246094 625.875 48.238281 625.875 L 48.238281 625.839844 L 19.816406 625.839844 L 19.816406 625.855469 C 14.363281 625.855469 9.410156 623.648438 5.816406 620.0625 C 2.242188 616.492188 0.015625 611.542969 0.015625 606.078125 L 0.015625 449.492188 C 0.015625 444.027344 2.242188 439.078125 5.816406 435.507812 L 6.277344 435.085938 C 9.832031 431.753906 14.605469 429.695312 19.816406 429.695312 L 61.097656 429.695312 C 66.546875 429.695312 71.503906 431.921875 75.09375 435.507812 L 75.519531 435.96875 C 76.421875 436.945312 77.230469 437.992188 77.949219 439.132812 C 113.886719 419.464844 150.175781 417.496094 183.683594 424.394531 C 217.90625 431.460938 249.054688 447.78125 273.8125 463.769531 L 373.6875 442.113281 C 382.914062 440.109375 390.335938 440.496094 396.378906 442.464844 C 402.789062 444.5625 407.503906 448.371094 411.132812 453.042969 C 413.582031 456.207031 415.222656 459.6875 416.035156 463.382812 C 416.308594 464.617188 416.496094 465.867188 416.585938 467.121094 Z M 61.097656 443.605469 L 19.816406 443.605469 C 18.304688 443.605469 16.941406 444.175781 15.894531 445.09375 L 15.652344 445.335938 C 14.605469 446.402344 13.921875 447.875 13.921875 449.492188 L 13.921875 606.078125 C 13.921875 607.695312 14.605469 609.167969 15.652344 610.234375 C 16.722656 611.300781 18.195312 611.964844 19.816406 611.964844 L 19.816406 611.984375 L 48.238281 612 L 48.238281 611.964844 C 53.398438 611.964844 58.074219 609.867188 61.484375 606.464844 C 64.871094 603.078125 66.972656 598.402344 66.972656 593.253906 L 66.972656 449.492188 C 66.972656 447.984375 66.417969 446.605469 65.480469 445.554688 L 65.242188 445.335938 C 64.191406 444.265625 62.71875 443.605469 61.097656 443.605469 Z M 61.097656 443.605469 " fill-opacity="1" fill-rule="nonzero"/></g></svg>