<svg xmlns="http://www.w3.org/2000/svg" xmlns:xlink="http://www.w3.org/1999/xlink" width="793" zoomAndPan="magnify" viewBox="0 0 595.5 842.249979" height="1122" preserveAspectRatio="xMidYMid meet" version="1.0"><defs><clipPath id="dcf48f9f9d"><path d="M 0.015625 0 L 594.984375 0 L 594.984375 841.5 L 0.015625 841.5 Z M 0.015625 0 " clip-rule="nonzero"/></clipPath><clipPath id="49444932fe"><path d="M 37.300781 79 L 557.339844 79 L 557.339844 762.304688 L 37.300781 762.304688 Z M 37.300781 79 " clip-rule="nonzero"/></clipPath></defs><g clip-path="url(#dcf48f9f9d)"><path fill="#ffffff" d="M 0.015625 0 L 594.984375 0 L 594.984375 841.5 L 0.015625 841.5 Z M 0.015625 0 " fill-opacity="1" fill-rule="nonzero"/><path fill="#ffffff" d="M 0.015625 0 L 594.984375 0 L 594.984375 841.5 L 0.015625 841.5 Z M 0.015625 0 " fill-opacity="1" fill-rule="nonzero"/></g><g clip-path="url(#49444932fe)"><path fill="#000000" d="M 84.292969 762.207031 L 416.367188 762.207031 C 416.882812 762.207031 417.398438 762.175781 417.914062 762.125 C 418.152344 762.109375 418.371094 762.0625 418.605469 762.03125 C 418.886719 761.984375 419.152344 761.953125 419.433594 761.90625 C 419.703125 761.859375 419.953125 761.78125 420.203125 761.71875 C 420.4375 761.65625 420.671875 761.609375 420.90625 761.53125 C 421.160156 761.453125 421.410156 761.359375 421.644531 761.265625 C 421.878906 761.1875 422.113281 761.109375 422.347656 761 C 422.582031 760.90625 422.789062 760.796875 423.023438 760.683594 C 423.257812 760.574219 423.507812 760.464844 423.742188 760.339844 C 423.945312 760.230469 424.148438 760.105469 424.355469 759.980469 C 424.589844 759.839844 424.824219 759.714844 425.058594 759.558594 C 425.277344 759.417969 425.480469 759.242188 425.683594 759.085938 C 425.890625 758.929688 426.09375 758.804688 426.28125 758.632812 C 426.609375 758.367188 426.921875 758.070312 427.21875 757.785156 C 427.28125 757.722656 427.359375 757.660156 427.425781 757.597656 L 552.734375 632.242188 C 552.734375 632.242188 552.859375 632.101562 552.921875 632.023438 C 553.203125 631.726562 553.5 631.410156 553.753906 631.097656 C 553.925781 630.894531 554.066406 630.675781 554.222656 630.457031 C 554.363281 630.253906 554.519531 630.0625 554.660156 629.859375 C 554.816406 629.625 554.957031 629.359375 555.113281 629.125 C 555.222656 628.9375 555.351562 628.746094 555.460938 628.558594 C 555.601562 628.308594 555.710938 628.058594 555.820312 627.808594 C 555.914062 627.605469 556.023438 627.382812 556.117188 627.179688 C 556.210938 626.929688 556.304688 626.679688 556.382812 626.445312 C 556.460938 626.210938 556.554688 625.972656 556.632812 625.738281 C 556.710938 625.488281 556.757812 625.238281 556.824219 624.988281 C 556.886719 624.738281 556.949219 624.5 556.996094 624.25 C 557.058594 623.953125 557.089844 623.65625 557.136719 623.375 C 557.167969 623.152344 557.199219 622.949219 557.230469 622.746094 C 557.277344 622.230469 557.308594 621.710938 557.308594 621.195312 L 557.308594 126.023438 C 557.308594 100.105469 536.222656 79.015625 510.316406 79.015625 L 84.292969 79.015625 C 58.386719 79.015625 37.300781 100.105469 37.300781 126.023438 L 37.300781 715.195312 C 37.300781 727.746094 42.1875 739.546875 51.070312 748.433594 C 59.8125 757.175781 71.933594 762.207031 84.292969 762.207031 Z M 436.617188 641.441406 C 439.53125 638.527344 443.574219 636.847656 447.691406 636.847656 L 503.863281 636.847656 L 432.027344 708.710938 L 432.027344 652.519531 C 432.027344 648.398438 433.703125 644.355469 436.617188 641.441406 Z M 526.011719 126.023438 L 526.011719 605.511719 L 447.691406 605.511719 C 435.320312 605.511719 423.210938 610.523438 414.46875 619.285156 C 405.589844 628.167969 400.703125 639.96875 400.703125 652.519531 L 400.703125 730.867188 L 84.292969 730.867188 C 80.175781 730.867188 76.132812 729.191406 73.21875 726.273438 C 70.304688 723.359375 68.628906 719.378906 68.628906 715.195312 L 68.628906 126.023438 C 68.628906 117.390625 75.664062 110.351562 84.292969 110.351562 L 510.347656 110.351562 C 518.980469 110.351562 526.011719 117.390625 526.011719 126.023438 Z M 526.011719 126.023438 " fill-opacity="1" fill-rule="nonzero"/></g><path fill="#000000" d="M 121.886719 185.566406 L 144.332031 185.566406 L 144.332031 295.253906 C 144.332031 303.902344 151.351562 310.921875 159.996094 310.921875 C 168.644531 310.921875 175.660156 303.902344 175.660156 295.253906 L 175.660156 185.566406 L 197.074219 185.566406 C 205.71875 185.566406 212.738281 178.546875 212.738281 169.898438 C 212.738281 161.246094 205.71875 154.226562 197.074219 154.226562 L 121.886719 154.226562 C 113.238281 154.226562 106.222656 161.246094 106.222656 169.898438 C 106.222656 178.546875 113.238281 185.566406 121.886719 185.566406 Z M 121.886719 185.566406 " fill-opacity="1" fill-rule="nonzero"/><path fill="#000000" d="M 231.53125 257.648438 C 231.53125 287.027344 255.421875 310.921875 284.789062 310.921875 C 303.414062 310.921875 319.828125 301.300781 329.351562 286.777344 L 335.148438 292.574219 C 338.203125 295.628906 342.214844 297.164062 346.222656 297.164062 C 350.234375 297.164062 354.242188 295.628906 357.296875 292.574219 C 363.421875 286.449219 363.40625 276.527344 357.296875 270.417969 L 344.53125 257.648438 L 357.296875 244.875 C 363.421875 238.765625 363.421875 228.832031 357.296875 222.71875 C 351.1875 216.609375 341.257812 216.59375 335.148438 222.71875 L 329.351562 228.515625 C 326.503906 224.160156 323.039062 220.257812 319.078125 216.921875 C 323.148438 210.574219 325.515625 203.054688 325.515625 194.96875 C 325.515625 172.5 307.25 154.226562 284.789062 154.226562 C 262.328125 154.226562 244.0625 172.5 244.0625 194.96875 C 244.0625 203.054688 246.429688 210.574219 250.5 216.921875 C 238.910156 226.699219 231.53125 241.320312 231.53125 257.648438 Z M 275.390625 194.96875 C 275.390625 189.78125 279.605469 185.566406 284.789062 185.566406 C 289.972656 185.566406 294.1875 189.78125 294.1875 194.96875 C 294.1875 200.15625 289.972656 204.371094 284.789062 204.371094 C 279.605469 204.371094 275.390625 200.15625 275.390625 194.96875 Z M 262.859375 257.648438 C 262.859375 245.550781 272.695312 235.710938 284.789062 235.710938 C 296.882812 235.710938 306.71875 245.550781 306.71875 257.648438 C 306.71875 269.742188 296.882812 279.585938 284.789062 279.585938 C 272.695312 279.585938 262.859375 269.742188 262.859375 257.648438 Z M 262.859375 257.648438 " fill-opacity="1" fill-rule="nonzero"/><path fill="#000000" d="M 460.222656 185.566406 L 472.753906 185.566406 C 481.402344 185.566406 488.417969 178.546875 488.417969 169.898438 C 488.417969 161.246094 481.402344 154.226562 472.753906 154.226562 L 460.222656 154.226562 C 417.039062 154.226562 381.90625 189.375 381.90625 232.574219 C 381.90625 275.777344 417.039062 310.921875 460.222656 310.921875 L 472.753906 310.921875 C 481.402344 310.921875 488.417969 303.902344 488.417969 295.253906 C 488.417969 286.605469 481.402344 279.585938 472.753906 279.585938 L 460.222656 279.585938 C 434.316406 279.585938 413.234375 258.492188 413.234375 232.574219 C 413.234375 206.65625 434.316406 185.566406 460.222656 185.566406 Z M 460.222656 185.566406 " fill-opacity="1" fill-rule="nonzero"/><path fill="#000000" d="M 472.753906 379.867188 L 121.886719 379.867188 C 113.238281 379.867188 106.222656 386.890625 106.222656 395.539062 C 106.222656 404.1875 113.238281 411.207031 121.886719 411.207031 L 472.753906 411.207031 C 481.402344 411.207031 488.417969 404.1875 488.417969 395.539062 C 488.417969 386.890625 481.402344 379.867188 472.753906 379.867188 Z M 472.753906 379.867188 " fill-opacity="1" fill-rule="nonzero"/><path fill="#000000" d="M 472.753906 455.082031 L 121.886719 455.082031 C 113.238281 455.082031 106.222656 462.101562 106.222656 470.753906 C 106.222656 479.402344 113.238281 486.421875 121.886719 486.421875 L 472.753906 486.421875 C 481.402344 486.421875 488.417969 479.402344 488.417969 470.753906 C 488.417969 462.101562 481.402344 455.082031 472.753906 455.082031 Z M 472.753906 455.082031 " fill-opacity="1" fill-rule="nonzero"/><path fill="#000000" d="M 472.753906 530.296875 L 121.886719 530.296875 C 113.238281 530.296875 106.222656 537.316406 106.222656 545.964844 C 106.222656 554.617188 113.238281 561.636719 121.886719 561.636719 L 472.753906 561.636719 C 481.402344 561.636719 488.417969 554.617188 488.417969 545.964844 C 488.417969 537.316406 481.402344 530.296875 472.753906 530.296875 Z M 472.753906 530.296875 " fill-opacity="1" fill-rule="nonzero"/><path fill="#000000" d="M 297.320312 605.511719 L 121.886719 605.511719 C 113.238281 605.511719 106.222656 612.53125 106.222656 621.179688 C 106.222656 629.828125 113.238281 636.847656 121.886719 636.847656 L 297.320312 636.847656 C 305.96875 636.847656 312.984375 629.828125 312.984375 621.179688 C 312.984375 612.53125 305.96875 605.511719 297.320312 605.511719 Z M 297.320312 605.511719 " fill-opacity="1" fill-rule="nonzero"/></svg>